<?xml version="1.0" encoding="UTF-8"?>
<svg id="svg987" width="1645.9089" height="1925.9545" overflow="hidden" version="1.1" xmlns="http://www.w3.org/2000/svg">
 <defs id="defs827">
  <clipPath id="clip0">
   <rect id="rect824" x="1378" y="278" width="1649" height="1926"/>
  </clipPath>
 </defs>
 <g id="g985" transform="translate(-1381.0455,-278.04554)" clip-path="url(#clip0)" fill-rule="evenodd">
  <path id="path829" d="m1384.5006 281.5h1638.9994v846.22c0 764.9-819.5 1072.78-819.5 1072.78s-819.5-307.88-819.5-1072.78z" fill="#d30707" stroke="#554400" stroke-miterlimit="8" stroke-width="6.90892"/>
  <g fill-opacity=".988235">
   <path id="path831" d="m2084.9 2075.65c39.89-30.71 53.25-53.47 77.21-79.4l-5.52-51.91c93.37-26.82 146.69-70.73 155.05-108.13-0.54 2.31-30.07 15.9-72.99 29.62-27.83 8.88-55.98 18.96-75.8 20.4-35.64 2.59-106.46 27.27-106.46 27.27l40.37 83.24c-9.36 31.37-9.68 54.26-11.86 78.91z" fill="#d1b948" stroke="#806600" stroke-miterlimit="8" stroke-opacity=".988235" stroke-width="5.97024"/>
   <path id="path833" d="m2141.55 2017.8s-49.73-7.12-75.34-21.43c-16.94-9.46-36.24-26.06-46.6-42.44-8.5-13.42-12.19-30.67-10.52-46.46 2.11-20.06 25.2-36.62 19.87-54.44 0 0 1.14-5.81-3.41-11.39-10.62-13.02-42.37-24.53-42.37-24.53l33.4-16.76s12.78-14.75 22.94-21.53c10.51-7 23.7-11.61 36.3-10.86 12.27 0.73 22.1 6.85 30.67 15.63 10.62 10.88 14.14 27.34 17.16 42.23 4.46 22.01-5.68 60.34-5.68 60.34s41.81 0.17 67.39 2.38c27.69 2.4 58.51 11.42 96.23 17.34 48.99 7.68 92.12 4.1 92.12 4.1-30.26 27.54-68.37 37.03-106.64 47.7 50.88 15.18 98.27-2.07 147.14-18.09-9.99 29.31-29.91 42.8-57.19 54.33 21.85 19.36 37.4 37.1 50.2 69.55 0 0-58.23-31.11-89.84-39.65-31.05-8.38-95.89-10.77-95.89-10.77 5.37 22.36 30.85 47.02 57.66 71.83-33.37 1.14-64.72-6.83-91.71-34.58-27.12 34.67-39.25 36.72-57.6 45.43 14.22-24.28 18.93-50.99 11.71-77.93z" fill="#f7e078"/>
   <path id="path835" d="m2018.54 1799.24-14.24 7.42-20.8 8.76 38.66 21.27 7.3 11.72s3.96-5.95 4.54-10.2c0.58-4.2-1.16-8.74-3.64-12.18-3.62-5-13.27-5.61-12.88-11.31zm68.95-8.63-1.22 2.26s1.31 1.08 3.02 2.55zm1.8 4.81 7.58 20.18 2.36 22.67-5.66 14.95-10.99 7.72-13.47 1.5-22.65-5.85s5.65 8.61 10.39 11.42c6.52 3.88 14.81 6 22.29 4.7 8.46-1.48 17.1-5.5 22.26-12.35 5.02-6.67 6.41-15.78 6.71-24.11 0.32-8.91-1.17-18.32-5.31-26.21-2.59-4.93-9.5-11.2-13.51-14.62zm47.63 106.21s8.8 8.47 12.67 14.26c2.18 3.26 2.38 9.92 1.53 13.74-3.58 16.08-27.97 36.09-27.97 36.09l13.69 0.42 37.95 1.54 36.81-0.05 55.53-10.13c0.06 0.04 13.15 8.71 19.06 10.99 13.6 5.23 31.47 0.96 45.46 5.05 6.28 1.84 20.4 8.83 20.4 8.83s-14.79 6.78-22.66 8.64c-15.38 3.65-40.32 2.73-40.32 2.73s32.18 7.5 50.25 14.83c10.38 4.2 19.95 10.49 28.63 17.55 5.17 4.2 13.7 14.56 13.7 14.56s-39.67-18.79-60.7-24.75c-20.15-5.72-61.99-10.37-61.99-10.37s-25.05-2.61-37.22-5.65c-13.26-3.31-38.67-13.63-38.67-13.63 19.89 29.19 37.33 59.12 65.85 85.72l-29.14-9.93-34.12-23.38s-9.13 12.02-14.42 17.38c-5.73 5.8-18.64 15.84-18.64 15.84s6.13-18.92 6.56-28.09c0.56-12.21-5.89-29.03-5.89-29.03-2.46-9.97-14.68-27.95-21.91-32.62-5.72-3.7-17.41-5.05-17.41-5.05s10.61 9.72 13.45 13.7c2.59 3.64 3.84 12.85 3.84 12.85s-41.38-9.57-60.61-18.25c-18.24-8.24-51-31.68-51-31.68 10.37 16.38 29.67 32.96 46.6 42.43 25.62 14.31 75.34 21.43 75.34 21.43 7.23 26.95 2.52 53.65-11.71 77.93 18.35-8.71 30.48-10.75 57.6-45.42 26.99 27.74 58.35 35.71 91.71 34.57-26.8-24.81-52.28-49.46-57.65-71.83 0 0 64.84 2.39 95.89 10.77 31.61 8.54 89.83 39.65 89.83 39.65-12.8-32.45-28.34-50.19-50.19-69.56 27.28-11.53 47.2-25.01 57.19-54.33-48.86 16.02-96.22 33.26-147.08 18.11l5.11-0.92 47.27-14.8 37.79-18.4 14.9-12.84h-51.7s-12.54 13.49-20.53 17.75c-22.77 12.14-49.11 16.88-74.67 20.41-21.93 3.04-66.41 0.53-66.41 0.53s2.52-5.03 4.65-11.22c32.41 3.87 80.16 0.2 108.32-12.92-28.9 4.55-75.38 7.61-106.22 5.61 0.3-1.45 0.52-2.91 0.63-4.32 0.12-1.56-0.03-3.17-0.35-4.76 30.79 2.96 68.93-0.68 95.6-13.1-28.96 4.56-68.72 7.32-98.84 5.27-1.57-2.38-3.55-4.45-5.81-5.88-8.81-5.58-19.98-6.27-19.98-6.27z" fill="#d1b948"/>
  </g>
  <path id="path837" d="m2050.66 1798.74c-4.8 1.43-7.54 6.48-6.11 11.27 1.44 4.8 6.5 7.51 11.3 6.08v-0.01c4.8-1.43 7.53-6.48 6.1-11.27-1.44-4.79-6.49-7.51-11.29-6.07zm35.77-7.37c4.06 13.57 15.16 33.22 5.72 56.51-3.64 7.06-9.23 12.77-16.4 12.69 0 0-7.44 0.51-11.08-0.13-6.66-1.18-19.12-6.74-19.12-6.74 11.31 9.82 21.92 13.33 30.92 12.08 8.99-1.25 16.07-7.37 20.28-15.55 8.42-16.37 6.52-41.46-10.32-58.86zm0.95 108.03s-6.63 1.91-13.88 5.18-15.48 7.83-18.26 14.94c-2.38 6.08-2.67 11.26-1.17 15.92 1.49 4.66 4.58 8.53 8.49 12.52 8.29 8.45 23.34 13.77 41.81 17.27 18.48 3.51 40.51 5.11 62.63 5.29 22.13 0.18 44.37-1.02 63.33-3.2 9.64-1.11 17.03-2.73 24.52-4.31 7.24-1.53 14.65-3.03 19.19-4.89l-1.9-4.68c-4.16 1.71-11.55 3.12-18.92 4.6-7.16 1.43-14.22 2.96-23.44 4.02-18.72 2.16-40.91 3.41-62.81 3.23-21.91-0.18-43.6-1.83-61.61-5.25-18.02-3.43-32.2-8.84-38.98-15.76-3.68-3.75-6.27-7.04-7.38-10.49-1.1-3.45-0.91-7.21 1.17-12.53 1.67-4.27 6.75-8.74 13.04-12.77z" fill="#806600"/>
  <path id="path839" d="m2060.35 1767.68-20.05 9.16-12.61 10.72 5.79 10.9s16.69-11.18 26.15-14.14c8.63-2.7 17.56-3.15 26.32-0.92 5.99 1.52 11.24 4.38 15.83 8.52 8.06 7.25 21.29 24.58 21.29 24.58l-9.14-26.32-22.4-19.83zm-29.68 95.43-20.89 35.94-2.24 22.15 6.25 20.87 12 21.04-3.57-26.72c-0.8-6.01 11.1-5.99 15.69-11.02 5.51-6.04 9.8-9.79 11.12-17.85 0.8-4.88-2.08-9.43-4.17-13.91-2.69-5.82-7.6-8.88-10.67-14.5-2.62-4.79-3.51-16-3.51-16zm68.64 41.39c-2.2 0.67-4.37 1.4-6.46 2.09-9.02 2.96-14.06 6.15-18.88 14.32-2.62 4.45-3.02 11.16-0.19 15.48 6.34 9.69 14.73 11.58 26.2 13.35 7.76 1.19 16.92 2.13 23.47-2.21 7.28-4.81 13.23-14.32 12.44-22.99-0.82-8.94-8.58-17.56-16.9-20.96-6.08-2.49-13.05-1.09-19.68 0.92z" fill="#f8f0c3"/>
  <path id="path841" d="m2141.55 2017.8s-49.73-7.12-75.34-21.43c-16.94-9.46-36.24-26.06-46.6-42.44-8.5-13.42-12.19-30.67-10.52-46.46 2.11-20.06 26.36-36.97 21.03-54.79 0 0-0.02-5.46-4.57-11.04-10.62-13.02-42.37-24.53-42.37-24.53l33.4-16.76s12.78-14.75 22.94-21.53c10.51-7 23.7-11.61 36.3-10.86 12.27 0.73 22.1 6.85 30.67 15.63 10.62 10.88 14.14 27.34 17.16 42.23 4.46 22.01-5.68 60.34-5.68 60.34s41.81 0.17 67.39 2.38c27.69 2.4 58.51 11.42 96.23 17.34 48.99 7.68 92.12 4.1 92.12 4.1-30.26 27.54-68.37 37.03-106.64 47.7 50.88 15.18 98.27-2.07 147.14-18.09-9.99 29.31-29.91 42.8-57.19 54.33 21.85 19.36 37.4 37.1 50.2 69.55 0 0-58.23-31.11-89.84-39.65-31.05-8.38-95.89-10.77-95.89-10.77 5.37 22.36 30.85 47.02 57.66 71.83-33.37 1.14-64.72-6.83-91.71-34.58-27.12 34.67-39.25 36.72-57.6 45.43 14.22-24.28 18.93-50.99 11.71-77.93z" fill="none" stroke="#806600" stroke-miterlimit="8" stroke-opacity=".988235" stroke-width="5.97024"/>
  <path id="path843" d="m2049.55 1802.43c-1.84 0.55-2.84 2.4-2.29 4.23 0.55 1.84 2.4 2.84 4.24 2.29 1.85-0.55 2.72-2.24 2.14-4.19-0.59-1.96-2.25-2.89-4.09-2.33z" fill="#ffffff"/>
  <g fill-opacity=".988235">
   <path id="path845" d="m2079.59 1346.46c39.9-30.7 53.26-53.46 77.22-79.4l-5.53-51.91c93.38-26.82 146.7-70.72 155.05-108.13-0.54 2.31-30.06 15.91-72.98 29.62-27.83 8.89-55.99 18.96-75.8 20.41-35.64 2.59-106.47 27.27-106.47 27.27l40.38 83.24c-9.36 31.37-9.68 54.26-11.87 78.9z" fill="#d1b948" stroke="#806600" stroke-miterlimit="8" stroke-opacity=".988235" stroke-width="5.97024"/>
   <path id="path847" d="m2136.25 1288.62s-49.73-7.12-75.35-21.43c-16.94-9.47-36.23-26.06-46.6-42.44-8.49-13.43-12.18-30.67-10.52-46.47 2.12-20.05 25.21-36.61 19.87-54.44 0 0 1.15-5.8-3.4-11.38-10.63-13.03-42.38-24.53-42.38-24.53l33.41-16.77s12.78-14.74 22.94-21.52c10.5-7.01 23.69-11.62 36.3-10.86 12.26 0.73 22.09 6.85 30.67 15.63 10.61 10.88 14.13 27.33 17.15 42.23 4.47 22-5.67 60.33-5.67 60.33s41.8 0.17 67.39 2.39c27.68 2.39 58.51 11.41 96.22 17.33 49 7.69 92.13 4.11 92.13 4.11-30.26 27.54-68.38 37.02-106.64 47.7 50.88 15.18 98.26-2.08 147.14-18.1-9.99 29.32-29.91 42.8-57.19 54.33 21.85 19.37 37.39 37.1 50.19 69.55 0 0-58.22-31.11-89.84-39.65-31.04-8.38-95.88-10.76-95.88-10.76 5.37 22.36 30.84 47.02 57.65 71.82-33.36 1.14-64.71-6.83-91.7-34.57-27.12 34.67-39.25 36.71-57.6 45.43 14.22-24.29 18.93-50.99 11.71-77.93z" fill="#f7e078"/>
   <path id="path849" d="m2013.24 1070.06-14.24 7.42-20.8 8.76 38.66 21.27 7.3 11.71s3.96-5.94 4.54-10.19c0.57-4.2-1.16-8.75-3.65-12.18-3.62-5.01-13.26-5.61-12.87-11.31zm68.95-8.63-1.22 2.26s1.3 1.08 3.02 2.54zm1.8 4.8 7.58 20.18 2.35 22.68-5.66 14.95-10.98 7.72-13.47 1.49-22.65-5.85s5.64 8.61 10.39 11.43c6.52 3.87 14.8 5.99 22.29 4.69 8.45-1.47 17.1-5.49 22.25-12.34 5.03-6.68 6.42-15.78 6.72-24.12 0.31-8.91-1.17-18.32-5.32-26.21-2.58-4.92-9.49-11.2-13.5-14.62zm47.63 106.21s8.8 8.48 12.67 14.27c2.18 3.25 2.37 9.91 1.52 13.74-3.57 16.07-27.97 36.09-27.97 36.09l13.7 0.42 37.94 1.54 36.82-0.05 55.53-10.13c0.06 0.04 13.15 8.71 19.06 10.98 13.59 5.24 31.47 0.97 45.46 5.06 6.28 1.83 20.4 8.82 20.4 8.82s-14.8 6.78-22.66 8.65c-15.38 3.65-40.32 2.73-40.32 2.73s32.17 7.5 50.25 14.82c10.37 4.21 19.95 10.49 28.63 17.55 5.17 4.21 13.7 14.56 13.7 14.56s-39.67-18.78-60.7-24.75c-20.15-5.71-61.99-10.36-61.99-10.36s-25.05-2.62-37.22-5.66c-13.26-3.31-38.67-13.62-38.67-13.62 19.89 29.19 37.33 59.12 65.85 85.72l-29.15-9.94-34.11-23.38s-9.13 12.03-14.42 17.38c-5.73 5.8-18.65 15.84-18.65 15.84s6.14-18.91 6.56-28.08c0.57-12.22-5.88-29.03-5.88-29.03-2.46-9.98-14.69-27.96-21.91-32.63-5.73-3.69-17.41-5.05-17.41-5.05s10.61 9.73 13.44 13.71c2.6 3.64 3.85 12.84 3.85 12.84s-41.39-9.56-60.61-18.24c-18.25-8.24-51-31.69-51-31.69 10.37 16.39 29.66 32.97 46.6 42.43 25.61 14.32 75.34 21.44 75.34 21.44 7.23 26.94 2.51 53.65-11.71 77.93 18.35-8.72 30.48-10.76 57.6-45.43 26.99 27.75 58.35 35.72 91.71 34.58-26.81-24.81-52.28-49.46-57.66-71.83 0 0 64.85 2.39 95.89 10.77 31.61 8.53 89.83 39.64 89.83 39.64-12.79-32.45-28.33-50.18-50.19-69.55 27.29-11.53 47.21-25.01 57.2-54.33-48.86 16.02-96.23 33.26-147.08 18.11l5.11-0.93 47.27-14.8 37.79-18.39 14.89-12.85h-51.69s-12.55 13.5-20.53 17.75c-22.77 12.14-49.12 16.88-74.68 20.42-21.93 3.03-66.41 0.52-66.41 0.52s2.53-5.03 4.65-11.22c32.42 3.87 80.17 0.2 108.33-12.91-28.91 4.55-75.38 7.61-106.22 5.61 0.29-1.46 0.52-2.91 0.62-4.33 0.12-1.55-0.02-3.16-0.34-4.76 30.78 2.96 68.93-0.68 95.6-13.1-28.96 4.56-68.72 7.32-98.85 5.27-1.57-2.38-3.55-4.44-5.81-5.87-8.81-5.58-19.97-6.28-19.97-6.28z" fill="#d1b948"/>
  </g>
  <path id="path851" d="m2045.36 1069.55c-4.81 1.44-7.54 6.48-6.11 11.28 1.44 4.79 6.49 7.51 11.3 6.07 4.8-1.44 7.53-6.49 6.09-11.28-1.43-4.79-6.48-7.5-11.28-6.07zm35.76-7.36c4.07 13.57 15.17 33.22 5.72 56.51-3.63 7.06-9.22 12.77-16.39 12.68 0 0-7.45 0.52-11.09-0.12-6.65-1.18-19.12-6.75-19.12-6.75 11.32 9.82 21.92 13.33 30.92 12.08s16.07-7.37 20.29-15.55c8.42-16.36 6.52-41.45-10.33-58.85zm0.95 108.03s-6.63 1.9-13.88 5.17-15.47 7.83-18.25 14.95c-2.38 6.08-2.67 11.26-1.18 15.92 1.5 4.66 4.59 8.52 8.5 12.51 8.29 8.46 23.33 13.77 41.81 17.28 18.47 3.51 40.51 5.11 62.63 5.29s44.37-1.03 63.32-3.21c9.64-1.11 17.04-2.72 24.53-4.31 7.24-1.53 14.65-3.02 19.19-4.89l-1.91-4.67c-4.16 1.71-11.54 3.11-18.92 4.59-7.15 1.44-14.22 2.96-23.44 4.03-18.72 2.15-40.91 3.4-62.81 3.22s-43.59-1.83-61.61-5.25c-18.01-3.42-32.2-8.84-38.98-15.76-3.68-3.75-6.27-7.04-7.37-10.48-1.1-3.45-0.91-7.22 1.17-12.53 1.67-4.27 6.74-8.74 13.03-12.77z" fill="#806600"/>
  <path id="path853" d="m2055.05 1038.49-20.05 9.16-12.61 10.73 5.79 10.89s16.69-11.17 26.15-14.13c8.62-2.71 17.56-3.15 26.31-0.93 6 1.53 11.25 4.39 15.84 8.52 8.06 7.26 21.29 24.59 21.29 24.59l-9.15-26.33-22.39-19.82zm-29.68 95.43-20.89 35.95-2.24 22.15 6.24 20.87 12 21.04-3.57-26.72c-0.8-6.02 11.1-5.99 15.7-11.02 5.51-6.04 9.8-9.79 11.12-17.85 0.79-4.89-2.09-9.43-4.17-13.92-2.7-5.81-7.6-8.87-10.67-14.49-2.62-4.8-3.52-16.01-3.52-16.01zm68.64 41.39c-2.21 0.67-4.38 1.41-6.46 2.09-9.03 2.96-14.06 6.15-18.88 14.33-2.62 4.44-3.02 11.15-0.2 15.47 6.35 9.69 14.73 11.59 26.2 13.35 7.77 1.2 16.93 2.13 23.48-2.2 7.27-4.81 13.22-14.33 12.43-23-0.81-8.93-8.58-17.55-16.89-20.95-6.08-2.49-13.06-1.09-19.68 0.91z" fill="#f8f0c3"/>
  <path id="path855" d="m2136.25 1288.62s-49.73-7.12-75.35-21.43c-16.94-9.47-36.23-26.06-46.6-42.44-8.49-13.43-12.18-30.67-10.52-46.47 2.12-20.05 26.37-36.96 21.03-54.79 0 0-0.01-5.45-4.56-11.03-10.63-13.03-42.38-24.53-42.38-24.53l33.41-16.77s12.78-14.74 22.94-21.52c10.5-7.01 23.69-11.62 36.3-10.86 12.26 0.73 22.09 6.85 30.67 15.63 10.61 10.88 14.13 27.33 17.15 42.23 4.47 22-5.67 60.33-5.67 60.33s41.8 0.17 67.39 2.39c27.68 2.39 58.51 11.41 96.22 17.33 49 7.69 92.13 4.11 92.13 4.11-30.26 27.54-68.38 37.02-106.64 47.7 50.88 15.18 98.26-2.08 147.14-18.1-9.99 29.32-29.91 42.8-57.19 54.33 21.85 19.37 37.39 37.1 50.19 69.55 0 0-58.22-31.11-89.84-39.65-31.04-8.38-95.88-10.76-95.88-10.76 5.37 22.36 30.84 47.02 57.65 71.82-33.36 1.14-64.71-6.83-91.7-34.57-27.12 34.67-39.25 36.71-57.6 45.43 14.22-24.29 18.93-50.99 11.71-77.93z" fill="none" stroke="#806600" stroke-miterlimit="8" stroke-opacity=".988235" stroke-width="5.97024"/>
  <path id="path857" d="m2044.25 1073.24c-1.85 0.55-2.84 2.41-2.3 4.24 0.55 1.84 2.41 2.84 4.25 2.29s2.72-2.25 2.14-4.2c-0.59-1.95-2.25-2.88-4.09-2.33z" fill="#ffffff"/>
  <g fill-opacity=".988235">
   <path id="path859" d="m1604.28 1346.47c39.9-30.7 53.26-53.46 77.22-79.4l-5.53-51.91c93.38-26.82 146.69-70.72 155.05-108.13-0.54 2.31-30.06 15.91-72.99 29.62-27.83 8.89-55.98 18.96-75.79 20.41-35.64 2.59-106.47 27.27-106.47 27.27l40.37 83.24c-9.35 31.37-9.67 54.26-11.86 78.9z" fill="#d1b948" stroke="#806600" stroke-miterlimit="8" stroke-opacity=".988235" stroke-width="5.97024"/>
   <path id="path861" d="m1660.93 1288.63s-49.73-7.12-75.34-21.43c-16.94-9.47-36.24-26.06-46.6-42.44-8.49-13.42-12.18-30.67-10.52-46.47 2.12-20.05 25.2-36.61 19.87-54.44 0 0 1.15-5.8-3.41-11.38-10.62-13.03-42.37-24.53-42.37-24.53l33.41-16.77s12.78-14.74 22.93-21.52c10.51-7.01 23.7-11.62 36.31-10.86 12.26 0.73 22.09 6.85 30.67 15.63 10.61 10.88 14.13 27.33 17.15 42.23 4.46 22-5.67 60.33-5.67 60.33s41.8 0.17 67.39 2.39c27.68 2.39 58.5 11.41 96.22 17.33 48.99 7.69 92.13 4.11 92.13 4.11-30.26 27.54-68.38 37.02-106.64 47.7 50.88 15.18 98.26-2.08 147.14-18.1-9.99 29.32-29.91 42.8-57.2 54.33 21.86 19.37 37.4 37.1 50.2 69.55 0 0-58.23-31.11-89.84-39.65-31.04-8.38-95.89-10.76-95.89-10.76 5.38 22.36 30.85 47.02 57.66 71.82-33.36 1.14-64.72-6.83-91.71-34.57-27.12 34.67-39.24 36.71-57.6 45.43 14.23-24.29 18.94-50.99 11.71-77.93z" fill="#f7e078"/>
   <path id="path863" d="m1537.93 1070.07-14.24 7.42-20.8 8.76 38.65 21.27 7.3 11.71s3.96-5.94 4.54-10.19c0.58-4.2-1.16-8.75-3.64-12.18-3.62-5.01-13.27-5.61-12.88-11.31zm68.95-8.63-1.23 2.26s1.31 1.08 3.03 2.54zm1.8 4.8 7.57 20.18 2.36 22.68-5.66 14.95-10.99 7.72-13.47 1.49-22.65-5.85s5.65 8.61 10.39 11.43c6.53 3.87 14.81 5.99 22.29 4.69 8.46-1.47 17.11-5.49 22.26-12.34 5.02-6.68 6.42-15.78 6.71-24.12 0.32-8.91-1.17-18.32-5.31-26.21-2.58-4.92-9.5-11.2-13.5-14.62zm47.63 106.21s8.79 8.48 12.67 14.27c2.17 3.25 2.37 9.91 1.52 13.74-3.58 16.07-27.97 36.09-27.97 36.09l13.69 0.42 37.95 1.54 36.82-0.05 55.53-10.13c0.06 0.04 13.14 8.71 19.05 10.98 13.6 5.24 31.48 0.97 45.46 5.06 6.28 1.84 20.41 8.82 20.41 8.82s-14.8 6.78-22.66 8.65c-15.39 3.65-40.32 2.73-40.32 2.73s32.17 7.5 50.24 14.82c10.38 4.21 19.95 10.49 28.64 17.55 5.17 4.21 13.7 14.56 13.7 14.56s-39.68-18.78-60.7-24.75c-20.16-5.71-61.99-10.36-61.99-10.36s-25.05-2.62-37.23-5.66c-13.26-3.31-38.67-13.62-38.67-13.62 19.89 29.19 37.33 59.12 65.86 85.72l-29.15-9.94-34.12-23.38s-9.12 12.03-14.42 17.38c-5.73 5.8-18.64 15.84-18.64 15.84s6.13-18.91 6.56-28.08c0.56-12.22-5.89-29.03-5.89-29.03-2.46-9.98-14.68-27.96-21.91-32.63-5.72-3.69-17.4-5.05-17.4-5.05s10.6 9.73 13.44 13.71c2.6 3.64 3.85 12.84 3.85 12.84s-41.39-9.56-60.62-18.24c-18.24-8.24-50.99-31.69-50.99-31.69 10.36 16.38 29.66 32.97 46.6 42.43 25.61 14.32 75.34 21.44 75.34 21.44 7.22 26.94 2.51 53.65-11.71 77.93 18.35-8.72 30.48-10.76 57.6-45.43 26.99 27.75 58.34 35.72 91.71 34.58-26.81-24.81-52.29-49.46-57.66-71.83 0 0 64.85 2.39 95.89 10.77 31.61 8.53 89.83 39.64 89.83 39.64-12.8-32.45-28.33-50.18-50.19-69.55 27.29-11.53 47.21-25.01 57.19-54.33-48.85 16.02-96.22 33.26-147.08 18.11l5.12-0.93 47.26-14.8 37.79-18.4 14.9-12.84h-51.7s-12.54 13.5-20.53 17.75c-22.77 12.14-49.11 16.88-74.67 20.42-21.93 3.03-66.41 0.52-66.41 0.52s2.53-5.03 4.65-11.22c32.41 3.87 80.16 0.2 108.33-12.91-28.91 4.55-75.38 7.61-106.22 5.61 0.29-1.46 0.51-2.91 0.62-4.33 0.12-1.55-0.02-3.16-0.34-4.76 30.78 2.96 68.92-0.68 95.6-13.1-28.96 4.56-68.72 7.32-98.85 5.27-1.57-2.38-3.55-4.44-5.81-5.87-8.81-5.58-19.97-6.28-19.97-6.28z" fill="#d1b948"/>
  </g>
  <path id="path865" d="m1570.04 1069.56c-4.8 1.44-7.53 6.48-6.1 11.28 1.43 4.79 6.49 7.51 11.29 6.07s7.53-6.49 6.1-11.28-6.49-7.5-11.29-6.07zm35.77-7.36c4.07 13.57 15.17 33.22 5.72 56.51-3.64 7.06-9.22 12.77-16.39 12.69 0 0-7.45 0.51-11.09-0.14-6.66-1.17-19.12-6.74-19.12-6.74 11.32 9.82 21.92 13.33 30.92 12.08s16.07-7.37 20.28-15.55c8.43-16.36 6.53-41.45-10.32-58.85zm0.95 108.03s-6.63 1.9-13.88 5.17-15.47 7.83-18.26 14.95c-2.38 6.08-2.66 11.26-1.17 15.92s4.59 8.52 8.5 12.51c8.28 8.46 23.33 13.77 41.8 17.28 18.48 3.51 40.51 5.11 62.64 5.29 22.12 0.18 44.36-1.03 63.32-3.21 9.64-1.11 17.03-2.72 24.52-4.31 7.24-1.53 14.66-3.02 19.2-4.89l-1.91-4.67c-4.16 1.71-11.55 3.11-18.92 4.59-7.16 1.44-14.22 2.96-23.44 4.03-18.72 2.15-40.91 3.4-62.81 3.22s-43.6-1.83-61.61-5.25-32.2-8.84-38.98-15.76c-3.68-3.75-6.27-7.04-7.37-10.48-1.11-3.45-0.92-7.22 1.16-12.53 1.67-4.27 6.75-8.74 13.04-12.77z" fill="#806600"/>
  <path id="path867" d="m1579.74 1038.5-20.06 9.16-12.6 10.73 5.79 10.89s16.69-11.17 26.14-14.13c8.63-2.71 17.56-3.15 26.32-0.93 5.99 1.53 11.25 4.39 15.84 8.52 8.05 7.26 21.28 24.59 21.28 24.59l-9.14-26.33-22.39-19.82zm-29.68 95.43-20.9 35.95-2.24 22.15 6.25 20.87 12 21.04-3.57-26.72c-0.8-6.02 11.1-5.99 15.69-11.02 5.52-6.04 9.81-9.79 11.12-17.85 0.8-4.89-2.08-9.43-4.16-13.92-2.7-5.81-7.6-8.87-10.68-14.49-2.62-4.8-3.51-16.01-3.51-16.01zm68.64 41.39c-2.21 0.67-4.38 1.41-6.46 2.09-9.03 2.96-14.07 6.15-18.88 14.33-2.62 4.45-3.03 11.15-0.2 15.47 6.34 9.69 14.73 11.59 26.2 13.35 7.77 1.2 16.92 2.13 23.48-2.2 7.27-4.81 13.22-14.33 12.43-23-0.82-8.93-8.58-17.55-16.89-20.95-6.08-2.49-13.06-1.09-19.68 0.91z" fill="#f8f0c3"/>
  <path id="path869" d="m1660.93 1288.63s-49.73-7.12-75.34-21.43c-16.94-9.47-36.24-26.06-46.6-42.44-8.49-13.42-12.18-30.67-10.52-46.47 2.12-20.05 26.37-36.96 21.03-54.79 0 0-0.01-5.45-4.57-11.03-10.62-13.03-42.37-24.53-42.37-24.53l33.41-16.77s12.78-14.74 22.93-21.52c10.51-7.01 23.7-11.62 36.31-10.86 12.26 0.73 22.09 6.85 30.67 15.63 10.61 10.88 14.13 27.33 17.15 42.23 4.46 22-5.67 60.33-5.67 60.33s41.8 0.17 67.39 2.39c27.68 2.39 58.5 11.41 96.22 17.33 48.99 7.69 92.13 4.11 92.13 4.11-30.26 27.54-68.38 37.02-106.64 47.7 50.88 15.18 98.26-2.08 147.14-18.1-9.99 29.32-29.91 42.8-57.2 54.33 21.86 19.37 37.4 37.1 50.2 69.55 0 0-58.23-31.11-89.84-39.65-31.04-8.38-95.89-10.76-95.89-10.76 5.38 22.36 30.85 47.02 57.66 71.82-33.36 1.14-64.72-6.83-91.71-34.57-27.12 34.67-39.24 36.71-57.6 45.43 14.23-24.29 18.94-50.99 11.71-77.93z" fill="none" stroke="#806600" stroke-miterlimit="8" stroke-opacity=".988235" stroke-width="5.97024"/>
  <path id="path871" d="m1568.93 1073.25c-1.84 0.55-2.84 2.41-2.29 4.24 0.55 1.84 2.4 2.84 4.25 2.29 1.84-0.55 2.72-2.25 2.13-4.2-0.58-1.95-2.24-2.88-4.09-2.33z" fill="#ffffff"/>
  <g fill-opacity=".988235">
   <path id="path873" d="m2554.91 1346.45c39.89-30.7 53.25-53.46 77.21-79.4l-5.52-51.91c93.37-26.82 146.69-70.72 155.05-108.13-0.54 2.31-30.07 15.91-72.99 29.62-27.83 8.89-55.98 18.96-75.8 20.41-35.64 2.59-106.46 27.27-106.46 27.27l40.37 83.24c-9.36 31.37-9.68 54.26-11.86 78.9z" fill="#d1b948" stroke="#806600" stroke-miterlimit="8" stroke-opacity=".988235" stroke-width="5.97024"/>
   <path id="path875" d="m2611.56 1288.61s-49.73-7.12-75.34-21.43c-16.94-9.47-36.24-26.06-46.6-42.44-8.5-13.42-12.19-30.67-10.52-46.47 2.12-20.05 25.2-36.61 19.87-54.44 0 0 1.14-5.8-3.41-11.38-10.62-13.03-42.37-24.53-42.37-24.53l33.4-16.76s12.78-14.75 22.94-21.53c10.51-7.01 23.7-11.62 36.3-10.86 12.27 0.73 22.1 6.85 30.67 15.63 10.62 10.88 14.14 27.33 17.16 42.23 4.46 22-5.68 60.33-5.68 60.33s41.81 0.17 67.39 2.39c27.69 2.39 58.51 11.41 96.23 17.33 48.99 7.69 92.12 4.11 92.12 4.11-30.26 27.54-68.37 37.02-106.64 47.7 50.88 15.18 98.27-2.08 147.14-18.1-9.99 29.32-29.91 42.8-57.19 54.33 21.85 19.37 37.4 37.1 50.2 69.55 0 0-58.23-31.11-89.84-39.65-31.05-8.38-95.89-10.76-95.89-10.76 5.37 22.36 30.85 47.02 57.66 71.82-33.37 1.14-64.72-6.83-91.71-34.57-27.12 34.67-39.25 36.71-57.6 45.43 14.22-24.29 18.93-50.99 11.71-77.93z" fill="#f7e078"/>
   <path id="path877" d="m2488.55 1070.05-14.24 7.42-20.8 8.76 38.66 21.27 7.3 11.71s3.96-5.94 4.54-10.19c0.58-4.2-1.16-8.75-3.64-12.18-3.62-5.01-13.27-5.61-12.88-11.31zm68.95-8.63-1.22 2.26s1.31 1.08 3.02 2.54zm1.8 4.8 7.58 20.18 2.36 22.68-5.66 14.95-10.99 7.72-13.47 1.49-22.65-5.84s5.65 8.6 10.39 11.42c6.52 3.87 14.81 5.99 22.29 4.69 8.46-1.47 17.1-5.49 22.26-12.34 5.02-6.68 6.41-15.78 6.71-24.12 0.32-8.91-1.17-18.32-5.31-26.21-2.59-4.92-9.5-11.2-13.51-14.62zm47.63 106.21s8.8 8.48 12.67 14.27c2.18 3.25 2.38 9.91 1.53 13.74-3.58 16.07-27.97 36.09-27.97 36.09l13.69 0.42 37.95 1.54 36.81-0.05 55.53-10.13c0.06 0.04 13.15 8.71 19.06 10.98 13.6 5.24 31.47 0.97 45.46 5.06 6.28 1.84 20.4 8.82 20.4 8.82s-14.79 6.78-22.66 8.65c-15.38 3.65-40.32 2.73-40.32 2.73s32.18 7.5 50.25 14.82c10.38 4.21 19.95 10.49 28.63 17.55 5.17 4.21 13.7 14.56 13.7 14.56s-39.67-18.78-60.7-24.75c-20.15-5.71-61.99-10.36-61.99-10.36s-25.05-2.62-37.22-5.66c-13.26-3.31-38.67-13.62-38.67-13.62 19.89 29.19 37.33 59.12 65.85 85.72l-29.14-9.94-34.12-23.38s-9.13 12.03-14.42 17.38c-5.73 5.8-18.64 15.84-18.64 15.84s6.13-18.91 6.56-28.08c0.56-12.22-5.89-29.03-5.89-29.03-2.46-9.97-14.68-27.96-21.91-32.63-5.72-3.69-17.41-5.05-17.41-5.05s10.61 9.73 13.45 13.71c2.59 3.64 3.84 12.84 3.84 12.84s-41.38-9.56-60.61-18.24c-18.24-8.24-51-31.69-51-31.69 10.37 16.39 29.67 32.97 46.6 42.43 25.62 14.32 75.34 21.44 75.34 21.44 7.23 26.94 2.52 53.65-11.71 77.93 18.35-8.71 30.48-10.76 57.6-45.43 26.99 27.75 58.35 35.72 91.71 34.58-26.8-24.81-52.28-49.46-57.65-71.83 0 0 64.84 2.39 95.89 10.77 31.61 8.53 89.83 39.64 89.83 39.64-12.8-32.45-28.34-50.18-50.19-69.55 27.28-11.53 47.2-25.01 57.19-54.33-48.86 16.02-96.22 33.26-147.08 18.11l5.11-0.93 47.27-14.79 37.79-18.4 14.9-12.85h-51.7s-12.54 13.5-20.53 17.75c-22.77 12.14-49.11 16.88-74.67 20.42-21.93 3.03-66.41 0.52-66.41 0.52s2.52-5.03 4.65-11.22c32.41 3.87 80.16 0.2 108.32-12.91-28.9 4.55-75.38 7.61-106.22 5.61 0.3-1.46 0.52-2.91 0.63-4.33 0.12-1.55-0.03-3.16-0.35-4.76 30.79 2.96 68.93-0.68 95.6-13.1-28.96 4.56-68.72 7.33-98.84 5.27-1.57-2.38-3.55-4.44-5.81-5.87-8.81-5.58-19.98-6.28-19.98-6.28z" fill="#d1b948"/>
  </g>
  <path id="path879" d="m2520.67 1069.54c-4.8 1.44-7.54 6.48-6.11 11.28 1.44 4.79 6.5 7.51 11.3 6.07s7.53-6.48 6.1-11.28c-1.44-4.78-6.49-7.5-11.29-6.07zm35.77-7.36c4.06 13.57 15.16 33.22 5.72 56.51-3.64 7.06-9.23 12.77-16.4 12.69 0 0-7.44 0.51-11.08-0.13-6.66-1.18-19.12-6.75-19.12-6.75 11.31 9.82 21.92 13.33 30.92 12.08s16.07-7.37 20.28-15.55c8.42-16.36 6.52-41.45-10.32-58.85zm0.95 108.03s-6.63 1.9-13.88 5.17-15.48 7.83-18.26 14.95c-2.38 6.08-2.67 11.26-1.17 15.92 1.49 4.66 4.58 8.52 8.49 12.51 8.29 8.46 23.34 13.77 41.81 17.28 18.48 3.51 40.51 5.11 62.63 5.29 22.13 0.18 44.37-1.03 63.33-3.21 9.64-1.11 17.03-2.72 24.52-4.31 7.24-1.53 14.66-3.02 19.19-4.89l-1.9-4.67c-4.16 1.71-11.55 3.11-18.92 4.59-7.16 1.44-14.22 2.96-23.44 4.03-18.72 2.15-40.91 3.4-62.81 3.22-21.91-0.18-43.6-1.83-61.61-5.25-18.02-3.42-32.2-8.84-38.98-15.76-3.68-3.75-6.27-7.04-7.38-10.48-1.1-3.45-0.91-7.22 1.17-12.53 1.67-4.27 6.75-8.74 13.04-12.77z" fill="#806600"/>
  <path id="path881" d="m2530.36 1038.48-20.05 9.16-12.61 10.73 5.79 10.89s16.69-11.17 26.15-14.13c8.63-2.71 17.56-3.15 26.32-0.93 5.99 1.53 11.24 4.39 15.83 8.52 8.06 7.26 21.29 24.59 21.29 24.59l-9.14-26.33-22.4-19.82zm-29.67 95.43-20.9 35.95-2.24 22.15 6.25 20.87 12 21.04-3.57-26.72c-0.8-6.02 11.1-5.99 15.69-11.02 5.51-6.04 9.8-9.79 11.12-17.85 0.8-4.89-2.08-9.43-4.16-13.92-2.7-5.81-7.61-8.87-10.68-14.49-2.62-4.8-3.51-16.01-3.51-16.01zm68.63 41.39c-2.2 0.67-4.37 1.41-6.46 2.09-9.02 2.96-14.06 6.15-18.88 14.33-2.62 4.45-3.02 11.15-0.19 15.47 6.34 9.69 14.73 11.59 26.2 13.35 7.76 1.2 16.92 2.13 23.47-2.2 7.28-4.81 13.23-14.33 12.44-23-0.82-8.93-8.58-17.55-16.9-20.95-6.08-2.49-13.05-1.09-19.68 0.91z" fill="#f8f0c3"/>
  <path id="path883" d="m2611.56 1288.61s-49.73-7.12-75.34-21.43c-16.94-9.47-36.24-26.06-46.6-42.44-8.5-13.42-12.19-30.67-10.52-46.47 2.12-20.05 26.36-36.96 21.03-54.79 0 0-0.02-5.45-4.57-11.03-10.62-13.03-42.37-24.53-42.37-24.53l33.4-16.76s12.78-14.75 22.94-21.53c10.51-7.01 23.7-11.62 36.3-10.86 12.27 0.73 22.1 6.85 30.67 15.63 10.62 10.88 14.14 27.33 17.16 42.23 4.46 22-5.68 60.33-5.68 60.33s41.81 0.17 67.39 2.39c27.69 2.39 58.51 11.41 96.23 17.33 48.99 7.69 92.12 4.11 92.12 4.11-30.26 27.54-68.37 37.02-106.64 47.7 50.88 15.18 98.27-2.08 147.14-18.1-9.99 29.32-29.91 42.8-57.19 54.33 21.85 19.37 37.4 37.1 50.2 69.55 0 0-58.23-31.11-89.84-39.65-31.05-8.38-95.89-10.76-95.89-10.76 5.37 22.36 30.85 47.02 57.66 71.82-33.37 1.14-64.72-6.83-91.71-34.57-27.12 34.67-39.25 36.71-57.6 45.43 14.22-24.29 18.93-50.99 11.71-77.93z" fill="none" stroke="#806600" stroke-miterlimit="8" stroke-opacity=".988235" stroke-width="5.97024"/>
  <path id="path885" d="m2519.56 1073.23c-1.84 0.55-2.84 2.41-2.29 4.24 0.55 1.84 2.4 2.84 4.24 2.29 1.85-0.55 2.72-2.25 2.14-4.2-0.59-1.95-2.25-2.88-4.09-2.33z" fill="#ffffff"/>
  <g fill-opacity=".988235">
   <path id="path887" d="m1839.1 1714.91c39.9-30.7 53.26-53.46 77.22-79.4l-5.52-51.91c93.37-26.82 146.69-70.72 155.04-108.13-0.54 2.31-30.06 15.91-72.98 29.62-27.83 8.89-55.99 18.96-75.8 20.4-35.64 2.59-106.47 27.27-106.47 27.27l40.38 83.25c-9.36 31.36-9.68 54.26-11.87 78.9z" fill="#d1b948" stroke="#806600" stroke-miterlimit="8" stroke-opacity=".988235" stroke-width="5.97024"/>
   <path id="path889" d="m1895.76 1657.06s-49.73-7.11-75.35-21.43c-16.93-9.46-36.23-26.05-46.59-42.43-8.5-13.43-12.19-30.67-10.52-46.47 2.11-20.06 25.2-36.62 19.87-54.44 0 0 1.14-5.8-3.41-11.38-10.62-13.03-42.38-24.54-42.38-24.54l33.41-16.76s12.78-14.75 22.94-21.52c10.5-7.01 23.7-11.62 36.3-10.87 12.26 0.74 22.09 6.85 30.67 15.63 10.62 10.88 14.13 27.34 17.15 42.23 4.47 22.01-5.67 60.34-5.67 60.34s41.81 0.17 67.39 2.38c27.68 2.4 58.51 11.42 96.23 17.34 48.99 7.69 92.12 4.1 92.12 4.1-30.26 27.55-68.37 37.03-106.64 47.71 50.88 15.17 98.26-2.08 147.14-18.1-9.99 29.31-29.91 42.8-57.19 54.33 21.85 19.37 37.4 37.1 50.2 69.55 0 0-58.23-31.11-89.84-39.65-31.05-8.38-95.89-10.77-95.89-10.77 5.37 22.36 30.85 47.03 57.66 71.83-33.37 1.14-64.72-6.83-91.71-34.57-27.12 34.67-39.25 36.71-57.6 45.42 14.22-24.28 18.93-50.98 11.71-77.93z" fill="#f7e078"/>
   <path id="path891" d="m1772.75 1438.51-14.24 7.41-20.8 8.76 38.66 21.28 7.3 11.71s3.96-5.95 4.54-10.2c0.57-4.2-1.16-8.74-3.65-12.17-3.62-5.01-13.26-5.62-12.87-11.31zm68.95-8.63-1.22 2.26s1.3 1.08 3.02 2.54zm1.8 4.8 7.58 20.18 2.35 22.67-5.65 14.96-10.99 7.71-13.47 1.5-22.65-5.85s5.64 8.61 10.39 11.42c6.52 3.88 14.8 6 22.29 4.7 8.45-1.48 17.1-5.49 22.26-12.35 5.02-6.67 6.41-15.78 6.71-24.11 0.32-8.91-1.17-18.32-5.31-26.21-2.59-4.92-9.5-11.2-13.51-14.62zm47.63 106.21s8.8 8.47 12.67 14.27c2.18 3.25 2.37 9.91 1.52 13.73-3.57 16.08-27.96 36.1-27.96 36.1l13.69 0.41 37.95 1.55 36.81-0.06 55.53-10.12c0.06 0.03 13.15 8.7 19.06 10.98 13.59 5.24 31.47 0.96 45.46 5.05 6.28 1.84 20.4 8.83 20.4 8.83s-14.79 6.78-22.66 8.64c-15.38 3.65-40.32 2.74-40.32 2.74s32.17 7.5 50.25 14.82c10.37 4.2 19.95 10.49 28.63 17.55 5.17 4.21 13.7 14.56 13.7 14.56s-39.67-18.79-60.7-24.75c-20.15-5.72-61.99-10.37-61.99-10.37s-25.05-2.61-37.22-5.65c-13.26-3.31-38.67-13.62-38.67-13.62 19.89 29.18 37.33 59.11 65.85 85.72l-29.15-9.94-34.11-23.38s-9.13 12.03-14.42 17.38c-5.73 5.8-18.64 15.84-18.64 15.84s6.13-18.91 6.55-28.08c0.57-12.22-5.88-29.03-5.88-29.03-2.46-9.98-14.68-27.96-21.91-32.63-5.73-3.7-17.41-5.05-17.41-5.05s10.61 9.72 13.45 13.7c2.59 3.64 3.84 12.85 3.84 12.85s-41.38-9.57-60.61-18.25c-18.25-8.23-51-31.68-51-31.68 10.37 16.38 29.67 32.97 46.6 42.43 25.62 14.32 75.34 21.44 75.34 21.44 7.23 26.94 2.51 53.64-11.71 77.92 18.35-8.71 30.48-10.75 57.6-45.42 26.99 27.74 58.35 35.71 91.71 34.57-26.81-24.8-52.28-49.46-57.65-71.82 0 0 64.84 2.38 95.89 10.76 31.61 8.54 89.83 39.65 89.83 39.65-12.8-32.45-28.34-50.19-50.19-69.56 27.28-11.53 47.2-25.01 57.19-54.32-48.86 16.01-96.22 33.26-147.08 18.11l5.11-0.93 47.27-14.8 37.79-18.4 14.9-12.84h-51.7s-12.55 13.49-20.53 17.75c-22.77 12.14-49.12 16.88-74.67 20.42-21.93 3.03-66.42 0.52-66.42 0.52s2.53-5.03 4.66-11.22c32.41 3.87 80.16 0.2 108.32-12.92-28.9 4.56-75.38 7.61-106.22 5.62 0.29-1.46 0.52-2.91 0.63-4.33 0.11-1.56-0.03-3.16-0.35-4.76 30.79 2.96 68.93-0.68 95.6-13.1-28.96 4.56-68.72 7.32-98.85 5.27-1.57-2.38-3.55-4.45-5.81-5.88-8.81-5.58-19.97-6.27-19.97-6.27z" fill="#d1b948"/>
  </g>
  <path id="path893" d="m1804.87 1438c-4.81 1.43-7.54 6.48-6.11 11.27v0.01c1.44 4.79 6.5 7.51 11.3 6.07s7.53-6.49 6.1-11.28c-1.44-4.79-6.49-7.51-11.29-6.07zm35.76-7.36c4.07 13.56 15.17 33.21 5.72 56.51-3.63 7.06-9.22 12.77-16.39 12.68 0 0-7.45 0.52-11.08-0.13-6.66-1.18-19.12-6.74-19.12-6.74 11.31 9.82 21.91 13.33 30.91 12.08s16.08-7.37 20.29-15.55c8.42-16.37 6.52-41.46-10.33-58.86zm0.95 108.03s-6.63 1.9-13.88 5.17-15.47 7.83-18.25 14.94c-2.38 6.08-2.67 11.26-1.17 15.93 1.49 4.66 4.58 8.52 8.49 12.51 8.29 8.45 23.33 13.77 41.81 17.28 18.47 3.51 40.51 5.1 62.63 5.28 22.13 0.19 44.37-1.02 63.32-3.2 9.64-1.11 17.04-2.73 24.53-4.31 7.24-1.53 14.65-3.02 19.19-4.89l-1.9-4.67c-4.17 1.71-11.55 3.11-18.92 4.59-7.16 1.44-14.22 2.96-23.45 4.02-18.71 2.16-40.91 3.41-62.81 3.23s-43.59-1.83-61.61-5.25c-18.01-3.42-32.2-8.84-38.98-15.76-3.67-3.75-6.26-7.04-7.37-10.49-1.1-3.44-0.91-7.21 1.17-12.53 1.67-4.27 6.74-8.73 13.03-12.77z" fill="#806600"/>
  <path id="path895" d="m1814.56 1406.94-20.05 9.16-12.61 10.73 5.79 10.89s16.69-11.17 26.15-14.14c8.63-2.7 17.56-3.14 26.32-0.92 5.99 1.52 11.24 4.39 15.83 8.52 8.06 7.26 21.29 24.59 21.29 24.59l-9.14-26.33-22.4-19.82zm-29.68 95.43-20.89 35.95-2.24 22.14 6.24 20.87 12 21.04-3.56-26.72c-0.81-6.01 11.09-5.98 15.69-11.02 5.51-6.03 9.8-9.79 11.12-17.85 0.79-4.88-2.09-9.43-4.17-13.91-2.69-5.82-7.6-8.87-10.67-14.5-2.62-4.79-3.52-16-3.52-16zm68.64 41.39c-2.21 0.67-4.38 1.41-6.46 2.09-9.02 2.96-14.06 6.15-18.88 14.32-2.62 4.45-3.02 11.16-0.2 15.48 6.35 9.69 14.74 11.59 26.2 13.35 7.77 1.2 16.93 2.13 23.48-2.21 7.28-4.81 13.23-14.32 12.43-22.99-0.81-8.93-8.58-17.55-16.89-20.96-6.08-2.49-13.06-1.09-19.68 0.92z" fill="#f8f0c3"/>
  <path id="path897" d="m1895.76 1657.06s-49.73-7.11-75.35-21.43c-16.93-9.46-36.23-26.05-46.59-42.43-8.5-13.43-12.19-30.67-10.52-46.47 2.11-20.06 26.36-36.96 21.03-54.79 0 0-0.02-5.45-4.57-11.03-10.62-13.03-42.38-24.54-42.38-24.54l33.41-16.76s12.78-14.75 22.94-21.52c10.5-7.01 23.7-11.62 36.3-10.87 12.26 0.74 22.09 6.85 30.67 15.63 10.62 10.88 14.13 27.34 17.15 42.23 4.47 22.01-5.67 60.34-5.67 60.34s41.81 0.17 67.39 2.38c27.68 2.4 58.51 11.42 96.23 17.34 48.99 7.69 92.12 4.1 92.12 4.1-30.26 27.55-68.37 37.03-106.64 47.71 50.88 15.17 98.26-2.08 147.14-18.1-9.99 29.31-29.91 42.8-57.19 54.33 21.85 19.37 37.4 37.1 50.2 69.55 0 0-58.23-31.11-89.84-39.65-31.05-8.38-95.89-10.77-95.89-10.77 5.37 22.36 30.85 47.03 57.66 71.83-33.37 1.14-64.72-6.83-91.71-34.57-27.12 34.67-39.25 36.71-57.6 45.42 14.22-24.28 18.93-50.98 11.71-77.93z" fill="none" stroke="#806600" stroke-miterlimit="8" stroke-opacity=".988235" stroke-width="5.97024"/>
  <path id="path899" d="m1803.76 1441.69c-1.85 0.55-2.84 2.4-2.29 4.24s2.4 2.84 4.24 2.28c1.84-0.55 2.72-2.24 2.14-4.19-0.59-1.96-2.25-2.88-4.09-2.33z" fill="#ffffff"/>
  <g fill-opacity=".988235">
   <path id="path901" d="m2320.34 1714.9c39.9-30.7 53.26-53.46 77.22-79.4l-5.52-51.91c93.37-26.82 146.69-70.73 155.04-108.13-0.54 2.31-30.06 15.91-72.98 29.62-27.83 8.89-55.99 18.96-75.8 20.4-35.64 2.59-106.46 27.27-106.46 27.27l40.37 83.24c-9.36 31.37-9.68 54.26-11.87 78.91z" fill="#d1b948" stroke="#806600" stroke-miterlimit="8" stroke-opacity=".988235" stroke-width="5.97024"/>
   <path id="path903" d="m2377 1657.05s-49.73-7.11-75.34-21.43c-16.94-9.46-36.24-26.05-46.6-42.43-8.5-13.43-12.19-30.67-10.52-46.47 2.11-20.06 25.2-36.62 19.87-54.44 0 0 1.14-5.8-3.41-11.38-10.62-13.03-42.37-24.54-42.37-24.54l33.4-16.76s12.78-14.75 22.94-21.52c10.51-7.01 23.7-11.62 36.3-10.87 12.26 0.74 22.1 6.85 30.67 15.63 10.62 10.88 14.14 27.34 17.15 42.23 4.47 22.01-5.67 60.34-5.67 60.34s41.81 0.17 67.39 2.38c27.69 2.4 58.51 11.42 96.23 17.34 48.99 7.69 92.12 4.1 92.12 4.1-30.26 27.54-68.37 37.03-106.64 47.71 50.88 15.17 98.27-2.08 147.14-18.1-9.99 29.31-29.91 42.8-57.19 54.33 21.85 19.37 37.4 37.1 50.2 69.55 0 0-58.23-31.11-89.84-39.65-31.05-8.38-95.89-10.77-95.89-10.77 5.37 22.36 30.85 47.02 57.66 71.83-33.37 1.14-64.72-6.83-91.71-34.57-27.12 34.67-39.25 36.71-57.6 45.42 14.22-24.28 18.93-50.98 11.71-77.93z" fill="#f7e078"/>
   <path id="path905" d="m2253.99 1438.49-14.24 7.42-20.8 8.76 38.66 21.28 7.3 11.71s3.96-5.95 4.54-10.2c0.57-4.2-1.16-8.74-3.64-12.18-3.62-5-13.27-5.61-12.88-11.3zm68.95-8.62-1.22 2.26s1.31 1.08 3.02 2.54zm1.8 4.8 7.58 20.18 2.36 22.67-5.66 14.96-10.99 7.71-13.47 1.5-22.65-5.85s5.65 8.61 10.39 11.42c6.52 3.88 14.81 6 22.29 4.7 8.45-1.48 17.1-5.49 22.26-12.35 5.02-6.67 6.41-15.78 6.71-24.11 0.32-8.91-1.17-18.32-5.31-26.21-2.59-4.93-9.5-11.2-13.51-14.62zm47.63 106.21s8.8 8.47 12.67 14.27c2.18 3.25 2.37 9.91 1.52 13.73-3.57 16.08-27.96 36.09-27.96 36.09l13.69 0.42 37.95 1.55 36.81-0.06 55.53-10.12c0.06 0.03 13.15 8.7 19.06 10.98 13.6 5.24 31.47 0.96 45.46 5.05 6.28 1.84 20.4 8.83 20.4 8.83s-14.79 6.78-22.66 8.64c-15.38 3.65-40.32 2.74-40.32 2.74s32.18 7.5 50.25 14.82c10.38 4.2 19.95 10.49 28.63 17.55 5.17 4.2 13.7 14.56 13.7 14.56s-39.67-18.79-60.7-24.75c-20.15-5.72-61.99-10.37-61.99-10.37s-25.05-2.61-37.22-5.65c-13.26-3.31-38.67-13.62-38.67-13.62 19.89 29.18 37.33 59.11 65.85 85.72l-29.14-9.94-34.12-23.38s-9.13 12.03-14.42 17.38c-5.73 5.8-18.64 15.84-18.64 15.84s6.13-18.91 6.55-28.08c0.57-12.22-5.88-29.03-5.88-29.03-2.46-9.98-14.68-27.96-21.91-32.63-5.72-3.7-17.41-5.05-17.41-5.05s10.61 9.72 13.45 13.7c2.59 3.64 3.84 12.85 3.84 12.85s-41.38-9.57-60.61-18.25c-18.25-8.23-51-31.68-51-31.68 10.37 16.38 29.67 32.96 46.6 42.43 25.62 14.32 75.34 21.44 75.34 21.44 7.23 26.94 2.51 53.64-11.71 77.92 18.35-8.71 30.48-10.75 57.6-45.42 26.99 27.74 58.35 35.71 91.71 34.57-26.81-24.81-52.28-49.46-57.65-71.82 0 0 64.84 2.38 95.89 10.76 31.61 8.54 89.83 39.65 89.83 39.65-12.8-32.45-28.34-50.19-50.19-69.56 27.28-11.53 47.2-25.01 57.19-54.32-48.86 16.01-96.22 33.26-147.08 18.11l5.11-0.93 47.27-14.8 37.79-18.4 14.9-12.84h-51.7s-12.54 13.49-20.53 17.75c-22.77 12.14-49.11 16.88-74.67 20.41-21.93 3.04-66.42 0.53-66.42 0.53s2.53-5.03 4.66-11.22c32.41 3.87 80.16 0.2 108.32-12.92-28.9 4.56-75.38 7.61-106.22 5.62 0.29-1.46 0.52-2.91 0.63-4.33 0.12-1.56-0.03-3.16-0.35-4.76 30.79 2.96 68.93-0.68 95.6-13.1-28.96 4.56-68.72 7.32-98.85 5.27-1.56-2.38-3.55-4.45-5.8-5.88-8.82-5.58-19.98-6.27-19.98-6.27z" fill="#d1b948"/>
  </g>
  <path id="path907" d="m2286.11 1437.99c-4.81 1.43-7.54 6.48-6.11 11.27v0.01c1.44 4.79 6.5 7.51 11.3 6.07s7.53-6.49 6.1-11.28c-1.44-4.79-6.49-7.51-11.29-6.07zm35.77-7.37c4.06 13.57 15.16 33.22 5.71 56.52-3.63 7.05-9.22 12.77-16.39 12.68 0 0-7.45 0.52-11.08-0.13-6.66-1.18-19.12-6.74-19.12-6.74 11.31 9.82 21.91 13.33 30.91 12.08s16.08-7.37 20.29-15.55c8.42-16.37 6.52-41.46-10.32-58.86zm0.94 108.04s-6.62 1.9-13.87 5.17c-7.26 3.27-15.48 7.83-18.26 14.94-2.38 6.08-2.67 11.26-1.17 15.92 1.49 4.67 4.58 8.53 8.49 12.52 8.29 8.45 23.33 13.77 41.81 17.28s40.51 5.1 62.63 5.28c22.13 0.18 44.37-1.02 63.33-3.2 9.64-1.11 17.03-2.73 24.52-4.31 7.24-1.53 14.65-3.02 19.19-4.89l-1.9-4.67c-4.17 1.71-11.55 3.11-18.92 4.59-7.16 1.44-14.22 2.96-23.45 4.02-18.71 2.16-40.9 3.41-62.81 3.23-21.9-0.18-43.59-1.83-61.61-5.25-18.01-3.42-32.19-8.84-38.97-15.76-3.68-3.75-6.27-7.04-7.38-10.49-1.1-3.44-0.91-7.21 1.17-12.53 1.67-4.27 6.74-8.73 13.04-12.77z" fill="#806600"/>
  <path id="path909" d="m2295.8 1406.93-20.05 9.16-12.61 10.73 5.79 10.89s16.69-11.18 26.15-14.14c8.63-2.7 17.56-3.14 26.32-0.92 5.99 1.52 11.24 4.39 15.83 8.52 8.06 7.26 21.29 24.59 21.29 24.59l-9.14-26.33-22.4-19.83zm-29.68 95.43-20.89 35.95-2.24 22.14 6.24 20.87 12.01 21.04-3.57-26.72c-0.81-6.01 11.09-5.98 15.69-11.02 5.51-6.03 9.8-9.79 11.12-17.85 0.79-4.88-2.09-9.43-4.17-13.91-2.69-5.82-7.6-8.87-10.67-14.5-2.62-4.79-3.52-16-3.52-16zm68.64 41.39c-2.2 0.67-4.37 1.41-6.46 2.09-9.02 2.96-14.06 6.15-18.88 14.32-2.62 4.45-3.02 11.16-0.19 15.48 6.34 9.69 14.73 11.59 26.19 13.35 7.77 1.2 16.93 2.13 23.48-2.21 7.28-4.81 13.23-14.32 12.43-22.99-0.81-8.93-8.57-17.55-16.89-20.96-6.08-2.49-13.06-1.09-19.68 0.92z" fill="#f8f0c3"/>
  <path id="path911" d="m2377 1657.05s-49.73-7.11-75.34-21.43c-16.94-9.46-36.24-26.05-46.6-42.43-8.5-13.43-12.19-30.67-10.52-46.47 2.11-20.06 26.36-36.96 21.03-54.79 0 0-0.02-5.45-4.57-11.03-10.62-13.03-42.37-24.54-42.37-24.54l33.4-16.76s12.78-14.75 22.94-21.52c10.51-7.01 23.7-11.62 36.3-10.87 12.26 0.74 22.1 6.85 30.67 15.63 10.62 10.88 14.14 27.34 17.15 42.23 4.47 22.01-5.67 60.34-5.67 60.34s41.81 0.17 67.39 2.38c27.69 2.4 58.51 11.42 96.23 17.34 48.99 7.69 92.12 4.1 92.12 4.1-30.26 27.54-68.37 37.03-106.64 47.71 50.88 15.17 98.27-2.08 147.14-18.1-9.99 29.31-29.91 42.8-57.19 54.33 21.85 19.37 37.4 37.1 50.2 69.55 0 0-58.23-31.11-89.84-39.65-31.05-8.38-95.89-10.77-95.89-10.77 5.37 22.36 30.85 47.02 57.66 71.83-33.37 1.14-64.72-6.83-91.71-34.57-27.12 34.67-39.25 36.71-57.6 45.42 14.22-24.28 18.93-50.98 11.71-77.93z" fill="none" stroke="#806600" stroke-miterlimit="8" stroke-opacity=".988235" stroke-width="5.97024"/>
  <path id="path913" d="m2285 1441.68c-1.84 0.55-2.84 2.4-2.29 4.24s2.4 2.84 4.24 2.28c1.84-0.55 2.72-2.24 2.14-4.19-0.59-1.96-2.25-2.88-4.09-2.33z" fill="#ffffff"/>
  <path id="path915" d="m2234.9 354.9c0 19.606-15.67 35.5-35 35.5s-35-15.894-35-35.5 15.67-35.5 35-35.5 35 15.894 35 35.5z" fill="#d1b948" stroke="#816701" stroke-miterlimit="8" stroke-width="5.18675"/>
  <path id="path917" d="m2227.4 354.406c0 15.188-12.54 27.5-28 27.5-15.47 0-28-12.312-28-27.5s12.53-27.5 28-27.5c15.46 0 28 12.312 28 27.5z" fill="#f6e078"/>
  <path id="path919" d="m2218.24 339.902c1.18 1.854 2.12 3.903 2.73 6.114 3.39 12.261-4.12 24.862-16.78 28.147-5.1 1.324-10.25 0.925-14.81-0.814 5.2 3.261 11.72 4.479 18.18 2.804 12.1-3.14 19.28-15.186 16.04-26.906-1-3.623-2.88-6.79-5.36-9.345z" fill="#d1b948"/>
  <path id="path921" d="m2198.22 351.969c-6.26 6.028-14.61 7.756-18.66 3.858-4.05-3.899-2.26-11.946 4-17.974 6.27-6.028 14.62-7.755 18.67-3.857 4.04 3.898 2.26 11.945-4.01 17.973z" fill="#f8ec9c"/>
  <path id="path923" d="m1999.43 697.239s-3.33-19.987-0.18-87.778c52.09-31.531 138.9-38.222 200.18-38.222 61.36 0 148.61 6.691 201.18 38.222 3.16 67.791-0.49 87.778-0.49 87.778-141.04-40.865-132.32-38.822-200.35-38.822-68.02 0-59.31-2.043-200.34 38.822z" fill="#f6e078" stroke="#816701" stroke-miterlimit="8" stroke-width="5.18169"/>
  <path id="path925" d="m2198.61 588.734c143.76 0 203.41 40.381 203.41 40.381 1.53 67.235-2.11 67.62-2.11 67.62-140.96-40.755-132.25-38.717-200.23-38.717-67.99 0-59.28-2.038-200.23 38.717 0 0-3.33-0.385-3.03-67.62 0 0 58.42-40.381 202.19-40.381z" fill="#d1b948"/>
  <path id="path927" d="m2197.38 588.74c-66.15 0-116.51 11.298-153.08 19.067l-4.91 70.871c89.22-22.037 95.28-21.041 159.21-21.041 65 0 69.99-1.1 163.6 22.104l4.19-68.365c-37.66-9.225-93.02-22.636-169.01-22.636z" fill="#ebd25d"/>
  <path id="path929" d="m2198.43 588.741c-53.51 0-86.96 3.442-114.36 10.672l-3.67 72.339c66.84-20.511 67.29-13.762 119.03-13.762 52.59 0 52.68-6.845 122.82 14.752l3.15-70.006c-28.22-8.587-65.49-13.995-126.97-13.995z" fill="#f6e078"/>
  <path id="path931" d="m2198.59 588.937c-24.34 0-46.21 1.192-65.77 3.11v68.89c20.73-3.459 36.08-3.185 66.83-3.185 21.63 0 35.59-0.117 49.18 0.985l-1.38-68.132c-15.07-1.059-31.3-1.668-48.86-1.668z" fill="#f8ec9c"/>
  <path id="path933" d="m1993.9 630.253s61.27-41 204.99-41c143.74 0 205.01 41 205.01 41" fill="none" stroke="#816701" stroke-miterlimit="8" stroke-width="5.18169"/>
  <path id="path935" d="m2163.4 379.452c-7.36 0-14.64 3.03-19.84 8.214s-8.24 12.441-8.24 19.773c0 7.331 3.04 14.665 8.24 19.849s12.48 8.214 19.84 8.214c3.68-9e-3 7.36-0.794 10.75-2.206v5.932c0 7.87 10 16.047 10 16.047s-0.49 69.706-34.48 116.661l50.65 82.516 50.97-82.516c-33.71-46.955-34.56-116.661-34.56-116.661s9.84-8.177 9.84-16.046v-5.856c3.36 1.379 7.04 2.124 10.68 2.129 7.35 0 14.63-3.029 19.83-8.213s8.24-12.518 8.24-19.85c0-7.331-3.04-14.589-8.24-19.773s-12.48-8.213-19.83-8.213-14.71 3.029-19.91 8.213-8.17 12.442-8.17 19.773h-17.7c0-7.331-3.04-14.589-8.24-19.773s-12.48-8.213-19.83-8.213z" fill="#d1b948" stroke="#816701" stroke-miterlimit="8" stroke-width="5.18169"/>
  <path id="path937" d="m2161.62 384.832c-10.29-0.512-19.09 7.962-20.67 17.833-2.13 8.879 1.99 18.808 10.26 23.034 9.04 5.334 20.28 2.3 28.6-3.057-3.2 10.054-0.99 22.575 8.51 28.447 2.37 2.273 0.11 6.819 0.6 9.977-2.34 38.842-11.53 78.14-33.05 111.03 14.45 23.572 28.9 47.142 43.35 70.715 14.57-23.594 29.14-47.186 43.71-70.779-23.23-35.549-31.95-78.357-33.62-120.221 9.34-5.332 12.57-17.104 9.75-27.064-1.08-3.567 3.29 1.171 5.18 1.525 12.67 6.307 31.42-0.74 33.71-15.54 1.92-8.921-2.44-18.425-10.5-22.567-8.81-5.274-21.31-4.187-27.86 4.076-5.83 5.178-3.16 14.607-8.12 20.316-4.36 0.27-9.5-0.01-14.14 0.617-5.08 0.562-12.84 0.15-13.87-6.157-0.26-3.413 0.49-6.948-1.65-9.957-3.64-7.467-11.85-12.616-20.19-12.228z" fill="#f6e078"/>
  <g fill="#d1b948">
   <path id="path939" d="m2176.15 391.874c1.01 1.603 1.82 3.375 2.34 5.288 2.91 10.603-3.53 21.502-14.38 24.343-4.37 1.144-8.79 0.8-12.7-0.704 4.46 2.82 10.06 3.873 15.59 2.424 10.37-2.716 16.52-13.133 13.74-23.269-0.85-3.133-2.47-5.873-4.59-8.082z"/>
   <path id="path941" d="m2248.35 390.874c0.97 1.604 1.75 3.376 2.26 5.289 2.81 10.603-3.42 21.502-13.9 24.343-4.23 1.144-8.5 0.8-12.28-0.704 4.31 2.82 9.72 3.874 15.07 2.425 10.02-2.717 15.98-13.134 13.29-23.27-0.83-3.134-2.39-5.873-4.44-8.083z"/>
   <path id="path943" d="m2208.6 567.941s7.31 6.537 0.91 19.606c-6.4 13.07-24.69 6.536-24.69 6.536s4.58 16.805 23.78 6.534c19.2-10.27 10.05-29.876 0-32.676z"/>
  </g>
  <path id="path945" d="m2219.89 584.764c0 10.77-8.73 19.5-19.5 19.5s-19.5-8.73-19.5-19.5 8.73-19.5 19.5-19.5 19.5 8.73 19.5 19.5z" fill="none" stroke="#816701" stroke-linecap="round" stroke-linejoin="round" stroke-miterlimit="10" stroke-width="5.18205"/>
  <path id="path947" d="m2552.71 404.375c0 17.121-13.88 31-31 31s-31-13.879-31-31 13.88-31 31-31 31 13.879 31 31z" fill="#d1b948" stroke="#816701" stroke-linecap="round" stroke-linejoin="round" stroke-miterlimit="10" stroke-width="5.18169"/>
  <path id="path949" d="m2545.65 403.406c0 12.979-10.52 23.5-23.49 23.5-12.98 0-23.51-10.521-23.51-23.5 0-12.978 10.53-23.5 23.51-23.5 12.97 0 23.49 10.522 23.49 23.5z" fill="#f6e078"/>
  <path id="path951" d="m2538.34 390.902c0.55 1.872 0.86 3.857 0.86 5.91 0 11.383-9.14 20.61-20.42 20.61-4.55 0-8.74-1.503-12.13-4.035 3.57 3.994 8.72 6.516 14.47 6.516 10.79 0 19.53-8.82 19.53-19.7 0-3.364-0.84-6.53-2.31-9.301z" fill="#d1b948"/>
  <path id="path953" d="m2387.2 601.686 13.62 89.632c2.04-8.152 3.51-12.692 18.39-30.571 8.87-10.65 15.15-22.771 23.41-34.189 45.76-63.266 62.15-118.533 62.58-175.078 0.17-22.588-10.83-35.33-30.58-35.16-20.44 0.175-32.43 12.26-32.94 31.084-0.35 12.775 10.64 26.75 22.9 26.75 5.91 0 10.18-0.946 10.18-0.946-20.35 58.072-37.54 95.141-87.56 128.478z" fill="#d1b948" stroke="#816701" stroke-linecap="round" stroke-miterlimit="8" stroke-width="5.18169"/>
  <path id="path955" d="m2439.41 617.753c17.33-25.429 33.58-51.658 43.37-80.896 10.93-30.905 17.13-64.054 14.18-96.887-1.97-9.6-10.92-17.857-21.17-17.099-1.67-0.048-3.34-0.018-5.02 0-12.86 0.238-24.44 12.162-22.97 25.131 0.43 9.999 9.38 21.07 20.26 18.694 4.65-1.205 11.8-0.304 12.5 5.462 0.67 6.009-3.79 10.985-4.84 16.691-13.33 37.255-31.6 74.456-62.56 100.325-6.19 5.328-12.7 10.362-19.46 14.945 3.24 21.237 6.43 42.482 9.78 63.704 3.55-4.77 7.28-9.414 10.94-14.097l-4.37-10.768c17.94 1.983 20.34-11.973 29.36-25.205z" fill="#f6e078"/>
  <path id="path957" d="m2446.2 621.735c-8.49 12.861-18.5 27.171-26.02 36.536-4.4-3.944-7.31-5.975-8.79-10.721-4.03-12.928 2.66-25.865 13.09-28.948 9.66-2.856 18.26-0.797 21.72 3.133z" fill="none" stroke="#816701" stroke-linecap="round" stroke-linejoin="round" stroke-miterlimit="10" stroke-width="5.18169"/>
  <path id="path959" d="m2488.79 431.52s-11.12-7.378-25.94-0.922-12.04 29.514 5.56 30.434c17.6 0.923-11.11-21.211 20.38-29.512zm-5.56 54.414s-19.45 52.57-38.91 79.318c-19.45 26.745-43.53 42.424-43.53 42.424l4.63 19.368s9.26-21.213 31.5-15.679c0 0 38.9-54.416 46.31-125.431zm-47.4 134.96s-11.11 0.923-16.67 7.38c-5.56 6.454-5.21 10.651-1.04 11.574s7.53-4.657 5.67-7.886c-1.85-3.228 12.04-11.068 12.04-11.068z" fill="#f8ec9c"/>
  <path id="path961" d="m2516.86 397.318c-5.81 3.258-11.96 3.479-13.73 0.494s1.5-8.046 7.31-11.303c5.8-3.258 11.95-3.479 13.73-0.494 1.77 2.985-1.5 8.046-7.31 11.303z" fill="#f8ec9c"/>
  <path id="path963" transform="matrix(-1,0,0,1,1909.5,373.5)" d="m61.1908 30.8749c0 17.1211-13.8806 31.0001-31.0036 31.0001-17.116 0-30.996641-13.879-30.996641-31.0001 0-17.1212 13.880641-31.000193 30.996641-31.000193 17.123 0 31.0036 13.878993 31.0036 31.000193z" fill="#d1b948" stroke="#816701" stroke-linecap="round" stroke-linejoin="round" stroke-miterlimit="10" stroke-width="5.18169"/>
  <path id="path965" transform="matrix(-1,0,0,1,1901,380)" d="m46.6373 23.4066c0 12.9787-10.5216 23.4998-23.5 23.4998-12.9793 0-23.500485-10.5211-23.500485-23.4998s10.521185-23.5002896 23.500485-23.5002896c12.9784 0 23.5 10.5215896 23.5 23.5002896z" fill="#f6e078"/>
  <path id="path967" transform="matrix(-1,0,0,1,1893,391)" d="m31.3209-0.0974151c0.5541 1.8718251 0.8636 3.8568751 0.8636 5.9098551 0 11.38266-9.1449 20.60966-20.4267 20.60966-4.544 0-8.73508-1.5031-12.127998-4.0346 3.573378 3.9936 8.722418 6.5157 14.475298 6.5157 10.7829 0 19.5247-8.8199 19.5247-19.70003 0-3.36382-0.8352-6.53024-2.3089-9.3005851z" fill="#d1b948"/>
  <path id="path969" transform="matrix(-1,0,0,1,2013.5,416.5)" d="m-0.316706 185.186 13.622906 89.632c2.0434-8.152 3.508-12.692 18.3907-30.571 8.8661-10.65 15.1493-22.771 23.4083-34.189 45.7618-63.266 62.1498-118.5336 62.5758-175.0781 0.171-22.5882-10.823-35.330163-30.5764-35.160465-20.4336 0.17513132-32.4296 12.260465-32.9399 31.084365-0.346 12.7754 10.6428 26.7496 22.9034 26.7496 5.9068 0 10.1775-0.9451 10.1775-0.9451-20.3468 58.0717-37.5411 95.1407-87.562306 128.4777z" fill="#d1b948" stroke="#816701" stroke-linecap="round" stroke-miterlimit="8" stroke-width="5.18169"/>
  <path id="path971" transform="matrix(-1,0,0,1,2006,423)" d="m45.3973 194.753c17.3271-25.429 33.5844-51.658 43.371-80.896 10.9311-30.9049 17.1277-64.0541 14.1827-96.8873-1.973-9.59984-10.9258-17.856701-21.1707-17.098498-1.6726-0.047935-3.3478-0.018341-5.0217 0-12.863 0.238006-24.4454 12.161698-22.9709 25.130698 0.4294 9.9988 9.3782 21.0696 20.2573 18.6937 4.6544-1.2046 11.802-0.3038 12.5007 5.4625 0.6744 6.0085-3.7839 10.9845-4.8366 16.6909-13.3313 37.254-31.6018 74.455-62.566 100.325-6.1913 5.328-12.69883 10.362-19.461041 14.945 3.243921 21.237 6.433801 42.482 9.786631 63.704 3.55141-4.77 7.27701-9.414 10.94191-14.097l-4.377-10.768c17.9417 1.983 20.3423-11.973 29.3637-25.205z" fill="#f6e078"/>
  <path id="path973" transform="matrix(-1,0,0,1,1990.5,617.5)" d="M 35.6891,4.23491 C 27.1935,17.0965 17.1877,31.4063 9.66764,40.771 5.26947,36.8274 2.35948,34.7961 0.878528,30.05 -3.15717,17.1226 3.54092,4.18483 13.965,1.1026 23.6241,-1.75365 32.2231,0.304622 35.6891,4.23491 Z" fill="none" stroke="#816701" stroke-linecap="round" stroke-linejoin="round" stroke-miterlimit="10" stroke-width="5.18169"/>
  <path id="path975" transform="matrix(-1,0,0,1,1999,428)" d="m87.7747 3.5202s-11.116-7.3781-25.9376-0.92231c-14.8208 6.45579-12.0405 29.51411 5.5586 30.43431 17.6012 0.9227-11.1144-21.2116 20.379-29.512zm-5.5578 54.4141s-19.4529 52.5697-38.9054 79.3177c-19.453 26.745-43.536777 42.424-43.536777 42.424l4.631297 19.368s9.26298-21.213 31.49588-15.679c0 0 38.9055-54.416 46.315-125.4307zm-47.3956 134.9597s-11.1168 0.923-16.6751 7.38c-5.5557 6.454-5.2059 10.651-1.0364 11.574 4.1666 0.923 7.5216-4.657 5.6682-7.886-1.8514-3.228 12.0433-11.068 12.0433-11.068z" fill="#f8ec9c"/>
  <path id="path977" transform="matrix(-1,0,0,1,1897,384)" d="m13.8428 13.3184c-5.80899 3.2574-11.95605 3.4781-13.7301 0.4933-1.77448-2.9848 1.49638-8.04564 7.30491-11.30303 5.80899-3.257802 11.95599-3.478947 13.73009-0.4937 1.774 2.98524-1.4964 8.04603-7.3049 11.30343z" fill="#f8ec9c"/>
  <path id="path979" d="m2016.13 710.281c-9.59 3.219-19 2.84-22.74-4.366-2.98-5.749-2.98-15.865 14.17-21.418 0 0 74.1-36.282 192.34-36.282 118.23 0 192.34 36.282 192.34 36.282 17.14 5.553 17.14 15.669 14.16 21.418-3.74 7.206-13.14 7.585-22.73 4.366 0 0-65.54-35.741-183.77-35.767-118.24 0.026-183.77 35.767-183.77 35.767z" fill="#f6e078" stroke="#816701" stroke-linecap="round" stroke-linejoin="round" stroke-miterlimit="10" stroke-width="5.18169"/>
  <path id="path981" d="m2166.74 388.318s-16.94-2.624-22.16 11.811c-5.21 14.435 18.25 24.934 16.95 10.498-1.31-14.435 5.21-22.309 5.21-22.309zm70.09-1.362s-16.6 2.784-17.52 13.919 11.98 16.702 11.98 5.567 5.54-19.486 5.54-19.486zm-41.49 28.765s-9.22-0.928-10.14 12.064c-0.92 12.991 10.14 16.702 10.14 16.702s-3.68-20.414 8.3-20.414 6.45-8.352 6.45-8.352zm-1.84 41.756s-4.61 42.688-7.38 60.317c-2.76 17.63-23.96 54.749-23.96 54.749l12.9 20.413s-3.68-25.052 14.75-31.549c0 0 11.99-66.811 3.69-103.927zm5.18 111.938s-9.77 0.656-11.08 9.843c-1.3 9.185 7.17 17.715 10.43 6.56 3.26-11.153 0.65-16.403 0.65-16.403z" fill="#f8ec9c"/>
  <path id="path983" d="m1542.78 747.5c58.93 0 105.25 47.28 164.18 47.28s105.12-47.28 164.05-47.28 105.12 47.28 164.05 47.28 105.12-47.28 164.05-47.28 105.13 47.28 164.05 47.28c58.93 0 105.13-47.28 164.06-47.28s105.25 47.28 164.18 47.28 105.12-47.28 164.05-47.28 110.205 47.28 169.135 47.28v196.72c-58.93 0-110.205-47.486-169.135-47.486s-105.12 47.486-164.05 47.486-105.25-47.486-164.18-47.486-105.13 47.486-164.06 47.486c-58.92 0-105.12-47.486-164.05-47.486s-105.12 47.486-164.05 47.486-105.12-47.486-164.05-47.486-105.12 47.486-164.05 47.486-105.25-47.486-164.18-47.486c-44.2 0-81.24 26.718-121.84 40.062l-37.577 6.79v-196.572l37.577-6.893c40.6-13.3 77.64-39.901 121.84-39.901z" fill="#ffffff" stroke="#7f7f7f" stroke-miterlimit="8" stroke-width="4.58333"/>
 </g>
</svg>
