<svg width="1430" height="1864" xmlns="http://www.w3.org/2000/svg" xmlns:xlink="http://www.w3.org/1999/xlink" overflow="hidden"><defs><clipPath id="clip0"><rect x="1489" y="307" width="1430" height="1864"/></clipPath></defs><g clip-path="url(#clip0)" transform="translate(-1489 -307)"><path d="M2914.65 1527.6 2914.65 311.474 1492.65 311.474 1492.65 1527.6C1492.65 1908.95 2203.65 2167.47 2203.65 2167.47 2203.65 2167.47 2914.65 1908.95 2914.65 1527.6Z" stroke="#554400" stroke-width="6.90892" stroke-miterlimit="8" fill="#D30707" fill-rule="evenodd"/><path d="M2363.5 426.408C2357.87 426.377 2352.27 426.408 2346.71 426.514 2131.21 430.647 1921.58 506.002 1831.34 547.553L1879.42 593.879C1938.04 580.9 2128.16 520.889 2354.49 595.482 2355.71 576.974 2371.16 562.584 2389.82 562.584 2409.37 562.584 2425.22 578.343 2425.22 597.782 2425.21 605.684 2422.54 613.355 2417.62 619.561 2460.68 638.262 2504.68 662.129 2549.02 692.397 2580.1 607.27 2742.15 576.727 2828.34 620.708 2747.47 495.104 2538.15 427.417 2363.5 426.408Z" stroke="#8E8E8E" stroke-width="5.18169" stroke-miterlimit="8" fill="#E1E1DC" fill-rule="evenodd"/><path d="M2360.55 443.899C2355.96 443.885 2351.4 443.92 2346.86 444.006 2173.49 447.335 2004.73 497.99 1901.27 538.401 2011.53 509.15 2126.01 494.655 2229.82 495.793 2348.39 497.089 2557.81 546.091 2581.43 597.799 2512.75 560.679 2344.31 512.957 2227.31 511.677 2115.85 510.457 1991.43 527.524 1873.67 561.803L1886.74 574.383C1961.83 565.342 2054.88 544.495 2152.52 544.395 2199.73 544.344 2273.85 558.578 2347.23 581.952 2353.81 564.383 2370.68 552.732 2389.52 552.728 2414.45 552.732 2434.66 572.846 2434.67 597.658 2434.67 603.057 2433.69 608.415 2431.78 613.47 2476.1 632.745 2515.57 655.009 2542.68 678.896 2557.43 610.458 2631.93 584.982 2764.84 578.4 2670.4 492.846 2502.93 444.315 2360.55 443.899ZM1901.27 538.401C1890.04 541.383 1878.84 544.461 1867.72 547.745L1864.84 553.275C1875.78 548.57 1888.07 543.56 1901.27 538.401Z" fill="#F0F0EC" fill-rule="evenodd"/><path d="M2226.22 505.806C2107.7 504.509 1975.15 523.373 1850.99 561.667L1854.97 570.968C1977.79 533.087 2109.12 514.41 2226.09 515.699 2343.04 516.978 2508.34 559.233 2577 596.433 2535.92 550.476 2344.75 507.102 2226.22 505.806Z" fill="#8E8E8E" fill-rule="evenodd"/><path d="M2347.21 453.908C2249.5 454.41 2143.4 471.27 2026.4 503.366 2382.01 440.563 2573.87 561.617 2596.95 591.347 2640.64 561.733 2687.7 554.144 2729.84 560.062 2614.94 487.383 2490.03 453.172 2347.21 453.908ZM2201.38 524.204C2135.26 524.183 2074.84 531.484 2018.84 541.353 2112.83 536.769 2228.91 528.922 2346.3 563.408 2355.54 551.937 2369.03 544.654 2383.73 543.199 2318.26 529.599 2257.74 524.225 2201.38 524.204ZM2417.68 550.868C2434.1 560.788 2444.12 578.521 2444.12 597.64 2444.12 599.386 2444.04 601.133 2443.87 602.87 2473.37 618.447 2502.59 637.528 2531.19 660.897 2537.25 627.659 2564.53 615.005 2585.66 607.344 2526.26 582.169 2470.4 563.824 2417.68 550.868Z" fill="#FFFFFF" fill-rule="evenodd"/><path d="M1871.4 563.299C1777.24 519.18 1607.38 646.585 1606.06 695.09 1645.44 723.379 1849.53 665.046 1871.4 563.299Z" stroke="#806600" stroke-width="5.18169" stroke-miterlimit="8" fill="#E7CD54" fill-rule="evenodd"/><path d="M1833.99 594.979C1826.44 588.033 1818.84 581.104 1811.2 574.146 1807.65 574.393 1804.1 574.779 1800.55 575.236L1829.78 600.279C1831.18 598.509 1832.68 596.788 1833.99 594.979ZM1822.63 608.714 1786.3 577.574C1776.57 579.576 1766.82 582.463 1757.02 586.026L1804.07 626.343C1810.83 620.781 1816.99 614.891 1822.63 608.714ZM1795.18 633.261 1745.37 590.598C1737.13 594.109 1728.84 598.175 1720.49 602.79L1772.78 647.6C1780.7 643.111 1788.23 638.363 1795.18 633.261ZM1762.33 653.212 1710.31 608.622C1702.61 613.258 1695.27 618.176 1688.18 623.197L1736.66 664.75C1737.61 664.381 1738.56 664.084 1739.51 663.694 1747.49 660.465 1755.03 656.919 1762.32 653.201ZM1724.81 669.138 1678.99 629.856C1671.82 635.28 1665.04 640.741 1658.91 646.21L1696.11 678.1C1705.47 675.642 1715.1 672.586 1724.81 669.138ZM1682.81 681.222 1650.86 653.855C1649.42 655.238 1647.78 656.661 1646.43 658.036 1650.05 661.745 1653.27 665.854 1655.57 670.505 1657.88 675.155 1659.2 680.198 1659.96 685.33 1667.1 684.424 1674.84 682.957 1682.81 681.222Z" fill="#FFEFAB" fill-rule="evenodd"/><path d="M1627.28 726.244C1608.66 735.485 1586.04 727.825 1576.77 709.133 1567.49 690.441 1575.07 667.797 1593.69 658.555 1612.32 649.313 1634.94 656.974 1644.21 675.666 1653.49 694.358 1645.91 717.002 1627.28 726.244Z" stroke="#806600" stroke-width="5.18169" stroke-linecap="round" stroke-miterlimit="8" fill="#FEE46E" fill-rule="evenodd"/><path d="M1617.79 707.123C1609.69 711.143 1599.85 707.811 1595.82 699.679 1591.78 691.548 1595.08 681.697 1603.18 677.676 1611.28 673.656 1621.12 676.988 1625.16 685.12 1629.19 693.251 1625.9 703.102 1617.79 707.123Z" stroke="#806600" stroke-width="5.18169" stroke-linecap="round" stroke-miterlimit="8" fill="#FFEFAB" fill-rule="evenodd"/><path d="M1865.07 731.521C1865.07 731.521 1872.05 757.511 1893.79 749.864 1910.96 743.823 1916.3 727.013 1912.77 709.091 1891.3 600.228 1706.68 515.785 1722.4 406.043 1729.45 356.8 1805.9 340.729 1835.88 386.698 1860.47 424.392 1847.01 451.611 1828.25 461.38 1806.35 472.782 1787.46 452.648 1786.7 440.249 1784.81 409.783 1811.23 418.209 1811.23 418.209 1811.23 418.209 1797.34 383.732 1771.72 401.284 1743.35 420.714 1767.57 468.141 1778.38 484.532 1821.2 549.468 1865.92 547.591 1886.87 550.225 1870.3 608.166 1946.03 657.014 1953.12 714.052 1955.8 735.626 1952.38 766.948 1921.45 779.553 1866.64 801.887 1844.6 754.288 1840.65 741.128 1835.5 723.932 1840.4 699.426 1856.21 691.07 1865.98 685.908 1880.5 690.482 1885.88 700.185 1890.31 708.176 1886.08 720.201 1879.91 726.904 1876.4 730.719 1865.07 731.521 1865.07 731.521Z" stroke="#806600" stroke-width="5.18169" stroke-miterlimit="8" fill="#FEE46E" fill-rule="evenodd"/><path d="M1825.64 393.415C1801.62 356.582 1739.85 370.545 1734.52 407.812 1731.1 431.682 1740.88 456.515 1755.39 480.078 1769.91 503.642 1791.63 527.424 1814.92 551.494 1861.5 599.633 1912.28 650.55 1924.19 710.972 1926.33 721.807 1926.57 728.682 1922.33 738.737 1918.09 748.791 1909.44 757.39 1897.89 761.456 1881.14 762.899 1863.57 752.761 1858.3 742.251 1854.35 734.382 1850 727.24 1858.48 720.855 1875.07 721.238 1880.16 706.248 1869.12 701.786 1866.3 700.646 1863.32 701.227 1861.95 701.949 1857.93 704.071 1854.31 709.074 1852.38 716.085 1850.46 723.096 1850.58 731.581 1852.39 737.604 1853.72 742.053 1859.77 755.828 1869.82 764.234 1879.86 772.64 1892.73 777.989 1916.81 768.18 1929.15 763.151 1934.94 755.465 1938.38 745.952 1941.83 736.439 1942.12 724.987 1940.95 715.559 1938.02 691.945 1922.14 664.331 1904.03 637.204 1888.49 613.911 1872.28 584.659 1876.66 558.977 1866.66 557.95 1854.3 556.263 1839.23 549.991 1817.84 541.088 1793.78 523.376 1771.25 489.214 1765.16 479.987 1752.84 465.515 1748.44 446.864 1746.23 437.539 1745.2 427.592 1747.28 417.646 1749.35 407.701 1755.12 397.762 1764.79 391.14 1773.16 385.408 1782.41 383.112 1790.55 384.381 1798.7 385.65 1805.02 389.937 1809.57 394.318 1818.67 403.081 1822.59 413.632 1822.59 413.632 1826.35 422.768 1825.98 430.294 1822.8 433.648 1808.85 427.863 1791.09 434.953 1806.43 449.601 1810.49 453.48 1815.51 454.173 1822.57 450.494 1832.06 445.557 1840.34 434.956 1835.77 415.722 1834.25 409.311 1831.14 401.841 1825.64 393.415Z" fill="#FFEFAB" fill-rule="evenodd"/><path d="M2363.47 1385.42C2357.83 1385.39 2352.23 1385.42 2346.68 1385.52 2131.17 1389.67 1921.55 1465.31 1831.31 1507.02L1879.38 1553.52C1938.01 1540.49 2128.12 1480.25 2354.46 1555.13 2355.68 1536.55 2371.13 1522.11 2389.78 1522.11 2409.33 1522.11 2425.18 1537.92 2425.18 1557.43 2425.18 1565.37 2422.5 1573.07 2417.58 1579.3 2460.65 1598.07 2504.65 1622.02 2548.99 1652.41 2580.07 1566.96 2742.12 1536.3 2828.31 1580.45 2747.44 1454.37 2538.11 1386.43 2363.47 1385.42Z" stroke="#8E8E8E" stroke-width="5.18169" stroke-miterlimit="8" fill="#E1E1DC" fill-rule="evenodd"/><path d="M2360.52 1402.91C2355.93 1402.89 2351.36 1402.93 2346.83 1403.01 2173.46 1406.34 2004.7 1457 1901.24 1497.41 2011.5 1468.16 2125.98 1453.66 2229.79 1454.8 2348.36 1456.1 2557.77 1505.1 2581.4 1556.81 2512.71 1519.69 2344.28 1471.97 2227.28 1470.69 2115.82 1469.47 1991.4 1486.53 1873.64 1520.81L1886.71 1533.39C1961.79 1524.35 2054.85 1503.5 2152.49 1503.4 2199.69 1503.35 2273.82 1517.59 2347.19 1540.96 2353.78 1523.39 2370.64 1511.74 2389.49 1511.74 2414.42 1511.74 2434.63 1531.86 2434.63 1556.67 2434.63 1562.07 2433.65 1567.42 2431.74 1572.48 2476.06 1591.75 2515.54 1614.02 2542.65 1637.91 2557.39 1569.47 2631.9 1543.99 2764.81 1537.41 2670.37 1451.85 2502.9 1403.32 2360.52 1402.91ZM1901.24 1497.41C1890.01 1500.39 1878.81 1503.47 1867.68 1506.75L1864.81 1512.28C1875.75 1507.58 1888.04 1502.57 1901.24 1497.41Z" fill="#F0F0EC" fill-rule="evenodd"/><path d="M2226.22 1465.51C2107.7 1464.22 1975.15 1483.03 1850.99 1521.21L1854.97 1530.49C1977.79 1492.72 2109.12 1474.09 2226.09 1475.38 2343.04 1476.65 2508.34 1518.79 2577 1555.88 2535.92 1510.05 2344.75 1466.81 2226.22 1465.51Z" fill="#8E8E8E" fill-rule="evenodd"/><path d="M2347.18 1412.92C2249.46 1413.42 2143.36 1430.28 2026.36 1462.38 2381.98 1399.57 2573.83 1520.63 2596.92 1550.36 2640.6 1520.74 2687.67 1513.15 2729.8 1519.07 2614.91 1446.39 2489.99 1412.18 2347.18 1412.92ZM2201.34 1483.21C2135.22 1483.19 2074.81 1490.49 2018.8 1500.36 2112.8 1495.78 2228.87 1487.93 2346.26 1522.42 2355.51 1510.95 2369 1503.66 2383.69 1502.21 2318.23 1488.61 2257.7 1483.23 2201.34 1483.21ZM2417.64 1509.88C2434.06 1519.8 2444.09 1537.53 2444.09 1556.65 2444.09 1558.4 2444 1560.14 2443.83 1561.88 2473.34 1577.46 2502.56 1596.54 2531.16 1619.91 2537.21 1586.67 2564.5 1574.01 2585.62 1566.35 2526.23 1541.18 2470.37 1522.83 2417.64 1509.88Z" fill="#FFFFFF" fill-rule="evenodd"/><path d="M1871.38 1522.67C1777.22 1478.55 1607.36 1605.95 1606.04 1654.46 1645.41 1682.74 1849.51 1624.41 1871.38 1522.67Z" stroke="#806600" stroke-width="5.18169" stroke-miterlimit="8" fill="#E7CD54" fill-rule="evenodd"/><path d="M1833.97 1554.35C1826.42 1547.4 1818.82 1540.47 1811.18 1533.51 1807.62 1533.76 1804.08 1534.15 1800.53 1534.6L1829.76 1559.65C1831.16 1557.88 1832.66 1556.16 1833.97 1554.35ZM1822.61 1568.08 1786.28 1536.94C1776.55 1538.94 1766.8 1541.83 1757 1545.39L1804.05 1585.71C1810.81 1580.15 1816.97 1574.26 1822.61 1568.08ZM1795.16 1592.63 1745.35 1549.96C1737.11 1553.48 1728.82 1557.54 1720.47 1562.16L1772.76 1606.97C1780.68 1602.48 1788.2 1597.73 1795.16 1592.63ZM1762.31 1612.58 1710.29 1567.99C1702.59 1572.62 1695.25 1577.54 1688.16 1582.56L1736.64 1624.12C1737.59 1623.75 1738.54 1623.45 1739.49 1623.06 1747.47 1619.83 1755.01 1616.29 1762.3 1612.57ZM1724.79 1628.5 1678.97 1589.22C1671.8 1594.65 1665.02 1600.11 1658.89 1605.58L1696.09 1637.47C1705.45 1635.01 1715.08 1631.95 1724.79 1628.5ZM1682.79 1640.59 1650.84 1613.22C1649.4 1614.6 1647.76 1616.03 1646.41 1617.4 1650.03 1621.11 1653.25 1625.22 1655.55 1629.87 1657.86 1634.52 1659.18 1639.57 1659.94 1644.7 1667.08 1643.79 1674.82 1642.32 1682.79 1640.59Z" fill="#FFEFAB" fill-rule="evenodd"/><path d="M1627.26 1685.61C1608.63 1694.85 1586.02 1687.19 1576.74 1668.5 1567.47 1649.81 1575.05 1627.17 1593.67 1617.92 1612.3 1608.68 1634.91 1616.34 1644.19 1635.04 1653.46 1653.73 1645.88 1676.37 1627.26 1685.61Z" stroke="#806600" stroke-width="5.18169" stroke-linecap="round" stroke-miterlimit="8" fill="#FEE46E" fill-rule="evenodd"/><path d="M1617.77 1666.49C1609.67 1670.51 1599.83 1667.18 1595.79 1659.05 1591.76 1650.92 1595.06 1641.07 1603.16 1637.05 1611.26 1633.02 1621.1 1636.36 1625.14 1644.49 1629.17 1652.62 1625.87 1662.47 1617.77 1666.49Z" stroke="#806600" stroke-width="5.18169" stroke-linecap="round" stroke-miterlimit="8" fill="#FFEFAB" fill-rule="evenodd"/><path d="M1865.05 1690.89C1865.05 1690.89 1872.03 1716.88 1893.77 1709.23 1910.94 1703.19 1916.28 1686.38 1912.74 1668.46 1891.28 1559.6 1706.66 1475.15 1722.38 1365.41 1729.43 1316.17 1805.88 1300.1 1835.86 1346.07 1860.44 1383.76 1846.99 1410.98 1828.23 1420.75 1806.32 1432.15 1787.44 1412.02 1786.67 1399.62 1784.79 1369.15 1811.21 1377.58 1811.21 1377.58 1811.21 1377.58 1797.32 1343.1 1771.69 1360.65 1743.33 1380.08 1767.54 1427.51 1778.35 1443.9 1821.18 1508.84 1865.9 1506.96 1886.85 1509.59 1870.27 1567.53 1946.01 1616.38 1953.1 1673.42 1955.78 1694.99 1952.36 1726.32 1921.42 1738.92 1866.61 1761.25 1844.58 1713.66 1840.63 1700.5 1835.47 1683.3 1840.38 1658.79 1856.19 1650.44 1865.96 1645.28 1880.48 1649.85 1885.86 1659.55 1890.29 1667.54 1886.06 1679.57 1879.89 1686.27 1876.38 1690.09 1865.05 1690.89 1865.05 1690.89Z" stroke="#806600" stroke-width="5.18169" stroke-miterlimit="8" fill="#FEE46E" fill-rule="evenodd"/><path d="M1825.62 1352.78C1801.59 1315.95 1739.83 1329.91 1734.49 1367.18 1731.07 1391.05 1740.86 1415.88 1755.37 1439.45 1769.89 1463.01 1791.6 1486.79 1814.9 1510.86 1861.48 1559 1912.25 1609.92 1924.17 1670.34 1926.3 1681.18 1926.55 1688.05 1922.31 1698.1 1918.06 1708.16 1909.42 1716.76 1897.87 1720.82 1881.12 1722.27 1863.55 1712.13 1858.28 1701.62 1854.33 1693.75 1849.98 1686.61 1858.46 1680.22 1875.05 1680.61 1880.14 1665.62 1869.1 1661.15 1866.28 1660.01 1863.29 1660.59 1861.93 1661.32 1857.91 1663.44 1854.29 1668.44 1852.36 1675.45 1850.44 1682.46 1850.56 1690.95 1852.36 1696.97 1853.7 1701.42 1859.75 1715.2 1869.79 1723.6 1879.84 1732.01 1892.71 1737.36 1916.78 1727.55 1929.13 1722.52 1934.91 1714.83 1938.36 1705.32 1941.81 1695.81 1942.1 1684.35 1940.93 1674.93 1937.99 1651.31 1922.12 1623.7 1904.01 1596.57 1888.46 1573.28 1872.26 1544.03 1876.63 1518.34 1866.64 1517.32 1854.27 1515.63 1839.21 1509.36 1817.82 1500.46 1793.75 1482.74 1771.23 1448.58 1765.14 1439.35 1752.82 1424.88 1748.41 1406.23 1746.21 1396.91 1745.18 1386.96 1747.25 1377.01 1749.33 1367.07 1755.1 1357.13 1764.77 1350.51 1773.14 1344.78 1782.38 1342.48 1790.53 1343.75 1798.67 1345.02 1804.99 1349.3 1809.55 1353.69 1818.65 1362.45 1822.57 1373 1822.57 1373 1826.33 1382.14 1825.96 1389.66 1822.78 1393.02 1808.82 1387.23 1791.07 1394.32 1806.41 1408.97 1810.47 1412.85 1815.48 1413.54 1822.55 1409.86 1832.04 1404.92 1840.32 1394.32 1835.75 1375.09 1834.23 1368.68 1831.11 1361.21 1825.62 1352.78Z" fill="#FFEFAB" fill-rule="evenodd"/><path d="M2363.43 917.426C2357.8 917.395 2352.2 917.426 2346.64 917.533 2131.14 921.681 1921.51 997.32 1831.27 1039.03L1879.35 1085.53C1937.97 1072.5 2128.09 1012.26 2354.42 1087.14 2355.64 1068.56 2371.1 1054.11 2389.75 1054.11 2409.3 1054.11 2425.15 1069.93 2425.15 1089.44 2425.14 1097.38 2422.47 1105.08 2417.55 1111.31 2460.61 1130.08 2504.61 1154.03 2548.96 1184.42 2580.04 1098.97 2742.09 1068.31 2828.27 1112.46 2747.4 986.38 2538.08 918.439 2363.43 917.426Z" stroke="#8E8E8E" stroke-width="5.18169" stroke-miterlimit="8" fill="#E1E1DC" fill-rule="evenodd"/><path d="M2360.49 934.918C2355.89 934.904 2351.33 934.938 2346.79 935.024 2173.43 938.353 2004.66 989.009 1901.2 1029.42 2011.46 1000.17 2125.94 985.673 2229.75 986.811 2348.32 988.108 2557.74 1037.11 2581.36 1088.82 2512.68 1051.7 2344.25 1003.98 2227.24 1002.7 2115.79 1001.47 1991.36 1018.54 1873.6 1052.82L1886.67 1065.4C1961.76 1056.36 2054.81 1035.51 2152.45 1035.41 2199.66 1035.36 2273.78 1049.6 2347.16 1072.97 2353.74 1055.4 2370.61 1043.75 2389.45 1043.75 2414.38 1043.75 2434.59 1063.86 2434.6 1088.68 2434.6 1094.08 2433.62 1099.43 2431.71 1104.49 2476.03 1123.76 2515.5 1146.03 2542.62 1169.92 2557.36 1101.48 2631.86 1076 2764.77 1069.42 2670.34 983.864 2502.86 935.334 2360.49 934.918ZM1901.2 1029.42C1889.97 1032.4 1878.77 1035.48 1867.65 1038.76L1864.77 1044.29C1875.72 1039.59 1888 1034.58 1901.2 1029.42Z" fill="#F0F0EC" fill-rule="evenodd"/><path d="M2226.22 997.514C2107.7 996.221 1975.15 1015.03 1850.99 1053.21L1854.97 1062.49C1977.79 1024.72 2109.12 1006.09 2226.09 1007.38 2343.04 1008.65 2508.34 1050.79 2577 1087.88 2535.92 1042.05 2344.75 998.806 2226.22 997.514Z" fill="#8E8E8E" fill-rule="evenodd"/><path d="M2347.14 944.927C2249.43 945.429 2143.33 962.288 2026.33 994.385 2381.94 931.581 2573.8 1052.64 2596.88 1082.37 2640.57 1052.75 2687.63 1045.16 2729.77 1051.08 2614.88 978.402 2489.96 944.191 2347.15 944.927ZM2201.31 1015.22C2135.19 1015.2 2074.77 1022.5 2018.77 1032.37 2112.76 1027.79 2228.84 1019.94 2346.23 1054.43 2355.47 1042.96 2368.96 1035.67 2383.66 1034.22 2318.2 1020.62 2257.67 1015.24 2201.31 1015.22ZM2417.61 1041.89C2434.03 1051.81 2444.06 1069.54 2444.06 1088.66 2444.05 1090.4 2443.97 1092.15 2443.8 1093.89 2473.3 1109.47 2502.52 1128.55 2531.13 1151.92 2537.18 1118.68 2564.46 1106.02 2585.59 1098.36 2526.19 1073.19 2470.33 1054.84 2417.61 1041.89Z" fill="#FFFFFF" fill-rule="evenodd"/><path d="M1871.36 1054.57C1777.2 1010.46 1607.34 1137.86 1606.02 1186.37 1645.39 1214.65 1849.49 1156.32 1871.36 1054.57Z" stroke="#806600" stroke-width="5.18169" stroke-miterlimit="8" fill="#E7CD54" fill-rule="evenodd"/><path d="M1833.95 1086.25C1826.4 1079.31 1818.8 1072.38 1811.16 1065.42 1807.6 1065.67 1804.06 1066.05 1800.51 1066.51L1829.74 1091.56C1831.14 1089.78 1832.64 1088.06 1833.95 1086.25ZM1822.59 1099.99 1786.26 1068.85C1776.53 1070.85 1766.78 1073.74 1756.98 1077.3L1804.03 1117.62C1810.79 1112.06 1816.95 1106.17 1822.59 1099.99ZM1795.14 1124.54 1745.33 1081.87C1737.09 1085.38 1728.8 1089.45 1720.45 1094.07L1772.74 1138.88C1780.66 1134.39 1788.18 1129.64 1795.14 1124.54ZM1762.29 1144.49 1710.27 1099.9C1702.57 1104.53 1695.23 1109.45 1688.14 1114.47L1736.62 1156.03C1737.57 1155.66 1738.52 1155.36 1739.47 1154.97 1747.44 1151.74 1754.99 1148.19 1762.28 1144.48ZM1724.77 1160.41 1678.95 1121.13C1671.77 1126.56 1665 1132.02 1658.87 1137.49L1696.07 1169.38C1705.43 1166.92 1715.06 1163.86 1724.77 1160.41ZM1682.77 1172.5 1650.82 1145.13C1649.38 1146.51 1647.73 1147.94 1646.39 1149.31 1650.01 1153.02 1653.23 1157.13 1655.53 1161.78 1657.84 1166.43 1659.16 1171.47 1659.92 1176.61 1667.06 1175.7 1674.8 1174.23 1682.77 1172.5Z" fill="#FFEFAB" fill-rule="evenodd"/><path d="M1627.23 1217.53C1608.61 1226.77 1585.99 1219.11 1576.72 1200.41 1567.44 1181.72 1575.02 1159.08 1593.65 1149.84 1612.27 1140.59 1634.89 1148.26 1644.16 1166.95 1653.44 1185.64 1645.86 1208.28 1627.23 1217.53Z" stroke="#806600" stroke-width="5.18169" stroke-linecap="round" stroke-miterlimit="8" fill="#FEE46E" fill-rule="evenodd"/><path d="M1617.75 1198.4C1609.64 1202.42 1599.81 1199.09 1595.77 1190.96 1591.74 1182.83 1595.03 1172.98 1603.13 1168.96 1611.24 1164.94 1621.08 1168.27 1625.11 1176.4 1629.15 1184.53 1625.85 1194.38 1617.75 1198.4Z" stroke="#806600" stroke-width="5.18169" stroke-linecap="round" stroke-miterlimit="8" fill="#FFEFAB" fill-rule="evenodd"/><path d="M1865.03 1222.8C1865.03 1222.8 1872.01 1248.79 1893.75 1241.14 1910.91 1235.1 1916.26 1218.29 1912.72 1200.37 1891.25 1091.51 1706.64 1007.06 1722.35 897.322 1729.41 848.078 1805.86 832.007 1835.84 877.976 1860.42 915.67 1846.97 942.889 1828.2 952.658 1806.3 964.06 1787.42 943.926 1786.65 931.528 1784.77 901.061 1811.19 909.487 1811.19 909.487 1811.19 909.487 1797.3 875.01 1771.67 892.562 1743.31 911.992 1767.52 959.419 1778.33 975.81 1821.15 1040.75 1865.88 1038.87 1886.83 1041.5 1870.25 1099.44 1945.99 1148.29 1953.08 1205.33 1955.76 1226.9 1952.34 1258.23 1921.4 1270.83 1866.59 1293.17 1844.55 1245.57 1840.61 1232.41 1835.45 1215.21 1840.35 1190.7 1856.16 1182.35 1865.94 1177.19 1880.46 1181.76 1885.84 1191.46 1890.27 1199.45 1886.04 1211.48 1879.87 1218.18 1876.36 1222 1865.03 1222.8 1865.03 1222.8Z" stroke="#806600" stroke-width="5.18169" stroke-miterlimit="8" fill="#FEE46E" fill-rule="evenodd"/><path d="M1825.6 884.693C1801.57 847.86 1739.81 861.824 1734.47 899.09 1731.05 922.96 1740.83 947.793 1755.35 971.356 1769.87 994.92 1791.58 1018.7 1814.87 1042.77 1861.46 1090.91 1912.23 1141.83 1924.15 1202.25 1926.28 1213.09 1926.53 1219.96 1922.29 1230.02 1918.04 1240.07 1909.4 1248.67 1897.85 1252.73 1881.09 1254.18 1863.53 1244.04 1858.26 1233.53 1854.31 1225.66 1849.96 1218.52 1858.44 1212.13 1875.03 1212.52 1880.12 1197.53 1869.08 1193.06 1866.26 1191.92 1863.27 1192.51 1861.9 1193.23 1857.89 1195.35 1854.26 1200.35 1852.34 1207.36 1850.41 1214.37 1850.54 1222.86 1852.34 1228.88 1853.68 1233.33 1859.73 1247.11 1869.77 1255.51 1879.82 1263.92 1892.69 1269.27 1916.76 1259.46 1929.11 1254.43 1934.89 1246.74 1938.34 1237.23 1941.78 1227.72 1942.08 1216.27 1940.91 1206.84 1937.97 1183.22 1922.09 1155.61 1903.99 1128.48 1888.44 1105.19 1872.24 1075.94 1876.61 1050.26 1866.62 1049.23 1854.25 1047.54 1839.19 1041.27 1817.8 1032.37 1793.73 1014.65 1771.2 980.492 1765.12 971.265 1752.8 956.793 1748.39 938.142 1746.19 928.817 1745.16 918.871 1747.23 908.925 1749.31 898.979 1755.08 889.04 1764.75 882.418 1773.11 876.686 1782.36 874.39 1790.51 875.659 1798.65 876.929 1804.97 881.215 1809.52 885.596 1818.63 894.359 1822.55 904.91 1822.55 904.91 1826.31 914.047 1825.94 921.572 1822.76 924.926 1808.8 919.141 1791.05 926.232 1806.39 940.879 1810.45 944.758 1815.46 945.452 1822.53 941.773 1832.01 936.835 1840.3 926.234 1835.73 907 1834.2 900.589 1831.09 893.119 1825.6 884.693Z" fill="#FFEFAB" fill-rule="evenodd"/></g></svg>