<?xml version="1.0" encoding="UTF-8" standalone="no"?>
<!-- Created with Inkscape (http://www.inkscape.org/) -->
<!DOCTYPE svg PUBLIC "-//W3C//DTD SVG 1.1//EN" "http://www.w3.org/Graphics/SVG/1.1/DTD/svg11.dtd">
<svg width="14cm" height="18cm"
     viewBox="0 0 350 450" preserveAspectRatio="none"
	 xmlns="http://www.w3.org/2000/svg" version="1.1"
	 xmlns:xlink="http://www.w3.org/1999/xlink">
    <style type="text/css">
    <![CDATA[
        path {
            fill-rule: nonzero;
            stroke-width: 1pt;
            stroke-linecap: round;
            stroke-linejoin: round;
            stroke-miterlimit: 4;
            stroke-dasharray: none;
            stroke-opacity: 1
        }
        .black {
            fill: #111;
            stroke: #222;
            stroke-width: 0.2pt;
        }
        .blue {
            fill: #0000d4;
            stroke: #0000d0;
        }
        .grey {
            fill: #dddddf;
            stroke: #111;
        }
        #hash {
            fill: none;
            stroke-width: 0.7pt;
        }
        #keys {
            fill: #d4aa00;
            stroke: #816a00;
        }
    ]]>
   </style>
   <defs>
        <path id="half-sheild"
            d= "M   0.00, 0.0
                L   0.00, 386.25
                C   0.00, 386.25  62.25, 366.00 108.00, 304.50
                C 154.00, 242.75 155.00, 177.75 155.00, 177.75
                L 155.00, 0.0
                z " />
   </defs>
    <g id="shield">
        <use xlink:href="#half-sheild" x="175" y="20"
            class="black" />
        <use xlink:href="#half-sheild" x="-175" y="20"
            transform="scale(-1 1)"
            class="blue" />
    </g>
    <g id="keys">
        <path id="lower_key"
           d="M 258.199, 278.538
            L 258.199, 253.962
            L 215.542, 253.962
            L 215.542, 300.855
            L 257.916, 300.855
            L 257.846, 287.861
            L 266.321, 287.861
            L 266.391, 304.810
            C 269.290, 304.844 273.238, 307.147 268.431, 312.146
            C 263.589, 317.182 261.363, 312.274 261.448, 309.754
            L 211.588, 309.754
            C 210.402, 312.450 205.874, 315.830 201.995, 311.249
            C 198.139, 306.695 201.975, 303.563 205.700, 303.459
            L 205.700, 251.419
            C 197.476, 252.195 198.614, 247.569 199.969, 242.818
            L 121.472, 153.111
            C 115.697, 153.051 110.823, 151.772 111.373, 143.154
            L 107.206, 138.775
            L  78.886, 165.259
            L  73.307, 159.891
            L  78.816, 154.524
            L  73.872, 149.580
            L  69.352, 154.100
            L  57.064, 141.812
            L  61.866, 137.009
            L  65.962, 141.105
            L  71.753, 135.314
            L  67.233, 130.794
            L  72.460, 125.568
            L  85.595, 138.704
            L  90.115, 134.184
            L  59.465, 103.534
            L  55.510, 107.489
            L  68.081, 120.060
            L  62.996, 125.145
            L  57.911, 120.060
            L  52.120, 125.851
            L  57.346, 131.077
            L  52.191, 135.809
            L  38.772, 122.390
            L  44.069, 117.517
            L  39.125, 112.574
            L  34.394, 116.882
            L  28.956, 111.373
            L  58.476,  85.030
            L  50.143,  76.132
            C  47.072,  72.501  52.708,  68.475  55.581,  71.118
            L 117.447, 138.422
            C 125.199, 137.489 127.359, 141.911 126.275, 149.439
            L 206.220, 238.989
            C 210.597, 238.962 214.520, 239.315 211.870, 245.204
            L 262.719, 245.063
            C 262.834, 242.096 266.247, 238.749 269.831, 242.126
            C 273.709, 245.779 270.533, 249.387 266.956, 249.300
            L 266.956, 278.538
            L 258.199, 278.538
            z " />
    <path id="upper_key"
         d="M 239.570, 245.073
            L 239.572, 231.904
            L 282.509, 232.516
            L 282.341, 278.840
            L 238.980, 278.674
            L 239.099, 253.976
            L 230.442, 253.976
            L 230.442, 282.007
            C 226.776, 281.746 224.095, 286.927 226.805, 289.919
            C 229.480, 292.872 234.715, 290.825 235.077, 287.826
            L 284.976, 288.011
            C 284.433, 291.750 288.358, 295.857 292.726, 291.592
            C 297.130, 287.292 294.249, 283.287 290.919, 283.461
            L 291.383, 229.819
            C 294.199, 228.843 297.964, 224.588 293.635, 220.373
            C 289.331, 216.183 285.870, 219.767 285.476, 223.471
            L 237.093, 223.243
            C 238.583, 216.660 234.704, 215.499 230.258, 217.158
            L 149.243, 127.638
            C 150.299, 121.914 148.253, 116.747 141.021, 117.661
            L 136.707, 112.751
            L 166.928,  85.985
            L 161.512,  79.591
            L 155.663,  84.672
            L 151.049,  79.368
            L 155.966,  75.208
            L 144.498,  62.025
            L 139.274,  66.444
            L 143.097,  70.839
            L 136.797,  76.168
            L 132.579,  71.319
            L 126.895,  76.128
            L 139.153,  90.221
            L 134.236,  94.380
            L 105.633,  61.497
            L 109.935,  57.857
            L 121.667,  71.344
            L 127.198,  66.665
            L 122.453,  61.209
            L 128.752,  55.880
            L 133.629,  61.487
            L 138.809,  56.710
            L 126.287,  42.314
            L 120.953,  47.221
            L 116.340,  41.917
            L 121.059,  37.531
            L 115.913,  31.691
            L  87.012,  59.099
            L  78.665,  50.116
            C  75.233,  46.778  70.729,  52.088  73.177,  55.152
            L 135.311, 122.258
            C 132.781, 128.500 137.470, 133.250 143.219, 131.614
            L 223.327, 222.107
            C 221.478, 227.560 224.286, 232.451 230.442, 230.259
            L 230.442, 245.184
            L 239.570, 245.073
            z " />
  </g>
  <g class="grey" >
    <path id="acorn"
     d="M 233.711,  55.758
        C 235.009,  47.668 239.279,  41.775 243.137,  38.017
        C 247.368,  33.896 252.038,  32.337 255.684,  32.686
        C 257.901,  32.899 260.434,  37.598 261.369,  43.474
        C 262.304,  49.350 260.778,  55.858 257.082,  63.448
        C 259.529,  68.442 253.826,  86.914 236.345,  79.528
        C 218.970,  72.187 229.217,  55.558 233.711,  55.758
        z " />
      <g class="black">
    <path id="hash"
     d="M 238.755,  80.302
        C 239.721,  80.246 257.874,  69.324 257.282,  68.742
        M 234.984,  78.904
        C 235.951,  78.847 256.688,  66.817 257.444,  64.384
        M 231.913,  77.007
        C 232.879,  76.950 254.928,  63.981 253.686,  63.448
        M 229.591,  74.984
        C 230.557,  74.927 250.434,  63.381 250.990,  61.651
        M 228.118,  72.837
        C 229.084,  72.780 247.288,  61.833 247.394,  60.802
        M 227.519,  69.940
        C 228.485,  69.884 244.042,  60.735 244.098,  59.553
        M 226.820,  66.445
        C 227.786,  66.388 238.349,  60.934 239.404,  58.255
        M 227.419,  62.549
        C 228.385,  62.493 235.902,  58.338 236.707,  56.457
        M 243.249,  81.002
        C 246.213,  79.497 253.829,  75.566 256.083,  72.787
        M 249.332,  79.753
        C 247.018,  79.597 228.454,  69.574 226.799,  66.195
        M 251.957,  78.155
        C 248.643,  78.148 228.604,  67.077 227.648,  62.649
        M 253.332,  76.108
        C 251.367,  76.051 230.253,  65.529 229.398,  59.653
        M 255.106,  74.435
        C 254.139,  74.378 232.154,  62.632 231.197,  57.206
        M 256.481,  71.638
        C 254.964,  71.532 233.804,  59.137 233.747,  55.957
        M 257.329,  69.141
        C 256.363,  69.085 239.199,  59.087 239.142,  57.905
        M 245.185,  80.801
        C 244.068,  81.044 229.705,  72.669 227.449,  69.890
        M 257.506,  66.351
        C 256.151,  66.224 251.311,  63.147 251.254,  61.966"
       />
    <path id="acorn-shading"
     d="M 257.706,  62.050
        C 256.771,  62.076 253.303,  63.033 253.602,  62.093
        C 255.420,  56.367 257.634,  52.222 257.914,  48.816
        C 258.737,  38.775 256.702,  41.454 256.368,  35.092
        C 255.893,  37.463 257.094,  43.547 256.795,  47.048
        C 256.390,  51.793 254.499,  56.462 251.623,  61.288
        C 248.453,  59.576 245.126,  60.213 241.173,  57.859
        C 242.347,  44.068 254.648,  43.583 254.364,  35.402
        C 252.351,  42.962 241.235,  44.259 238.938,  57.018
        C 238.763,  56.906 238.344,  56.621 237.950,  56.547
        C 238.239,  50.092 241.564,  46.159 244.914,  42.394
        C 249.005,  37.797 253.162,  36.357 254.124,  33.896
        C 250.334,  37.969 247.107,  36.734 241.557,  44.018
        C 239.565,  46.631 236.220,  51.896 236.009,  56.117
        C 234.854,  55.731 235.078,  54.952 233.964,  54.530
        C 233.849,  55.231 233.945,  55.541 233.304,  55.808
        C 239.618,  60.864 249.058,  63.852 257.235,  63.974
        C 256.777,  63.143 257.313,  63.088 257.706,  62.050
        z " />
   </g>
    <path id="sprig"
     d="M 234.509, 170.516
        C 236.649, 165.016 238.654, 162.313 241.470, 158.260
        C 244.319, 154.160 247.543, 152.837 252.591, 148.767
        C 255.645, 146.304 257.627, 145.713 259.497, 146.018
        C 261.368, 146.324 258.444, 149.893 269.017, 147.145
        C 275.640, 145.424 281.163, 143.824 288.744, 142.617
        C 293.734, 141.823 304.634, 134.914 296.733, 129.842
        C 290.195, 125.646 301.537, 121.719 305.904, 120.922
        C 310.824, 120.024 317.276, 114.184 318.899, 108.841
        C 320.911, 102.226 319.437,  99.710 310.416, 101.002
        C 304.234, 101.887 312.575,  92.042 315.113,  89.917
        C 320.773,  85.178 323.541,  77.849 320.991,  73.817
        C 319.537,  71.516 306.493,  74.189 313.213,  68.042
        C 318.443,  63.263 316.202,  55.328 312.613,  50.864
        C 309.574,  47.083 303.306,  47.787 298.671,  51.544
        C 295.473,  54.136 295.798,  64.092 297.133,  66.195
        C 300.125,  70.909 300.546,  74.438 295.884,  74.035
        C 293.976,  73.871 289.454,  73.217 286.869,  74.028
        C 284.919,  74.639 284.510,  79.065 284.448,  82.175
        C 284.299,  89.714 291.123,  97.201 287.241, 100.059
        C 286.089, 100.906 283.117, 100.312 281.956,  99.785
        C 280.795,  99.258 280.745,  98.178 279.528,  97.900
        C 278.163,  97.588 276.018,  97.962 274.409, 104.521
        C 272.799, 111.112 279.801, 118.376 275.649, 124.036
        C 273.163, 127.425 267.055, 116.063 263.205, 124.612
        C 262.117, 127.028 260.902, 128.947 259.108, 131.990
        C 257.313, 135.034 252.843, 137.753 256.129, 141.319
        C 256.487, 141.708 251.777, 144.275 248.820, 145.644
        C 246.575, 146.684 244.372, 146.798 244.136, 146.374
        C 242.465, 143.376 245.843, 140.820 246.345, 136.358
        C 246.809, 132.244 251.702, 126.152 255.097, 121.813
        C 257.125, 119.221 257.203, 116.764 257.210, 112.095
        C 257.220, 105.979 257.733, 104.987 259.179, 102.549
        C 262.726,  96.574 265.352,  90.265 267.282,  86.109
        C 268.086,  84.378 268.537,  81.596 267.189,  81.099
        C 265.220,  80.375 263.423,  81.123 262.376,  83.723
        C 260.147,  89.257 257.869,  94.032 255.237,  99.439
        C 254.589, 100.769 255.114, 101.987 253.386, 101.972
        C 252.505, 101.964 251.315, 100.674 249.426,  99.193
        C 245.486,  96.205 243.389,  91.655 241.502,  87.249
        C 240.899,  85.013 240.724,  83.490 242.097,  83.411
        C 243.768,  83.317 244.719,  81.865 241.491,  80.886
        C 240.467,  80.575 237.982,  81.293 235.353,  79.191
        C 233.003,  77.311 233.747,  80.390 234.742,  80.852
        C 237.060,  81.928 239.130,  84.906 240.190,  87.749
        C 241.250,  90.591 240.681,  93.017 242.577,  95.605
        C 246.111, 100.432 249.918, 103.967 251.903, 109.753
        C 253.647, 114.833 247.993, 122.070 243.908, 115.769
        C 241.821, 112.550 239.314, 105.661 236.902, 103.793
        C 235.454, 102.672 236.033, 105.984 236.073, 107.689
        C 236.103, 108.897 235.819, 110.399 236.129, 110.687
        C 237.763, 112.198 238.450, 114.403 239.806, 115.813
        C 242.781, 118.909 244.085, 122.859 243.699, 128.568
        C 243.493, 131.604 242.306, 135.278 240.868, 138.185
        C 238.461, 143.054 237.309, 144.537 235.186, 144.969
        C 232.714, 145.472 229.446, 141.806 229.356, 139.720
        C 229.199, 136.136 231.288, 138.089 231.863, 136.508
        C 232.522, 134.698 230.911, 131.531 232.506, 128.014
        C 235.430, 121.565 233.875, 117.585 230.790, 116.754
        C 226.359, 115.556 218.291, 124.440 220.528, 111.249
        C 221.124, 107.733 223.573, 106.393 224.216, 103.088
        C 225.105,  98.522 225.081,  94.862 224.219,  90.972
        C 223.342,  87.010 218.858,  86.214 213.626,  91.056
        C 211.106,  93.389 209.409,  89.399 211.738,  85.221
        C 215.171,  79.061 219.929,  74.171 216.183,  65.595
        C 215.110,  63.141 210.516,  62.401 207.534,  64.761
        C 206.016,  65.963 204.425,  63.952 205.845,  59.533
        C 207.983,  52.887 204.919,  44.149 197.156,  44.172
        C 189.393,  44.196 185.530,  54.096 189.298,  61.096
        C 190.456,  63.248 192.522,  65.126 191.671,  66.622
        C 191.053,  67.709 187.557,  67.107 184.821,  66.644
        C 177.883,  65.472 178.977,  78.332 181.026,  81.187
        C 183.687,  84.894 187.719,  88.385 190.449,  90.647
        C 191.622,  91.618 194.319,  93.305 194.353,  95.444
        C 194.399,  98.345 192.763,  98.074 190.085,  97.851
        C 186.625,  97.561 184.383,  98.932 184.821, 105.247
        C 185.243, 111.310 186.666, 116.150 192.647, 118.963
        C 197.705, 121.341 209.999, 124.449 206.095, 130.715
        C 204.724, 132.917 202.149, 130.553 201.868, 135.505
        C 201.769, 137.265 204.935, 141.956 208.418, 143.344
        C 213.684, 145.441 218.231, 148.469 222.725, 146.845
        C 224.971, 146.033 226.294, 144.573 228.007, 145.211
        C 229.406, 145.733 230.930, 147.504 232.258, 149.747
        C 235.158, 154.645 233.397, 157.292 232.189, 160.409
        C 230.982, 163.527 229.809, 165.380 226.669, 170.566
        C 230.271, 170.458 230.804, 170.449 234.509, 170.516
        z " />
    <path id="leaf_veins1" class="black"
       d="M 261.165, 141.706
       C 266.909, 137.650 268.880, 131.346 268.343, 124.937
       C 270.076, 131.635 268.767, 134.669 266.587, 138.383
       C 279.016, 129.595 285.641, 120.041 286.162, 115.663
       C 286.605, 111.135 282.359, 106.931 278.780, 104.423
       C 284.335, 106.455 286.803, 110.477 287.314, 115.536
       C 292.046, 109.226 292.551, 102.824 295.932,  96.913
       C 298.037,  91.975 295.945,  90.510 293.176,  87.310
       C 291.827,  86.035 289.260,  82.979 289.400,  78.514
       C 290.912,  87.240 296.965,  86.531 298.289,  92.424
       C 306.904,  70.613 306.166,  72.182 307.431,  54.646
       C 308.588,  71.825 305.039,  75.704 303.935,  83.239
       C 309.038,  80.427 314.238,  80.932 317.644,  78.025
       C 314.904,  82.480 310.909,  80.033 305.269,  84.054
       C 299.677,  88.042 301.310,  90.037 294.910, 103.752
       C 289.894, 112.405 305.955, 108.519 311.642, 107.086
       C 306.916, 109.895 300.611, 109.899 295.358, 110.443
       C 290.527, 110.944 288.612, 116.947 286.107, 120.765
       C 283.602, 124.583 280.716, 128.781 276.738, 132.136
       C 281.771, 131.702 288.157, 131.961 293.170, 134.996
       C 288.607, 133.934 281.744, 131.791 276.487, 133.711
       C 273.211, 134.907 267.819, 139.119 264.714, 141.700
       C 263.626, 141.628 262.241, 141.807 261.165, 141.706
       z " />
    <path id="leaf_veins2" class="black"
       d="M 225.046, 139.179
       C 218.780, 134.353 223.631, 126.458 226.567, 121.476
       C 225.026, 123.114 221.306, 126.751 220.781, 133.869
       C 212.952, 124.709 207.315, 115.567 207.501, 111.009
       C 207.857, 102.338 216.889,  98.213 217.495,  93.351
       C 213.896,  99.813 207.098, 101.908 206.426, 109.379
       C 203.446, 102.802 204.376, 100.423 202.246,  94.262
       C 200.920,  89.115 198.394,  82.491 200.536,  79.459
       C 201.937,  77.476 211.742,  71.298 212.703,  66.894
       C 209.953,  71.845 204.292,  73.253 199.463,  78.896
       C 197.182,  69.245 197.348,  70.630 196.550,  52.352
       C 194.573,  72.406 198.257,  74.752 197.904,  81.907
       C 194.689,  78.976 187.569,  74.408 185.423,  70.229
       C 186.649,  75.023 192.811,  78.514 196.364,  82.706
       C 199.887,  86.863 202.354, 100.279 206.385, 114.574
       C 199.957, 112.009 199.478, 105.012 189.703, 106.464
       C 198.074, 106.247 202.095, 114.839 205.005, 115.706
       C 207.964, 116.587 209.004, 119.639 211.082, 123.619
       C 213.149, 127.578 218.298, 133.448 220.804, 136.945
       C 214.987, 138.091 210.964, 138.461 204.809, 137.329
       C 210.431, 140.217 219.298, 138.034 220.912, 138.736
       C 223.123, 139.699 222.677, 139.130 224.632, 141.821
       C 225.318, 141.746 225.292, 140.933 225.046, 139.179
       z " />
  </g>
  <g id="bag" class="grey">
  <path id="bag-outline"
     d="M  71.188, 228.255
     C  69.540, 240.033  67.432, 244.093  67.355, 263.271
     C  67.277, 282.648  73.713, 283.734  72.752, 295.563
     C  71.389, 296.642  71.650, 298.447  72.833, 299.356
     C  66.077, 301.065  73.776, 307.623  67.614, 309.519
     C  69.193, 310.867  78.186, 320.037  84.352, 308.196
     C  85.425, 309.339  87.168, 308.846  87.682, 307.395
     C  92.380, 309.851  96.869, 310.915 100.957, 309.674
     C 105.045, 308.433 114.711, 311.813 119.425, 310.720
     C 124.151, 309.625 129.697, 313.003 136.375, 309.243
     C 136.449, 310.390 137.685, 310.551 138.225, 309.654
     C 138.567, 314.849 143.008, 318.138 147.296, 315.404
     C 151.135, 312.956 155.179, 315.500 156.947, 317.123
     C 160.869, 310.781 156.609, 300.223 149.539, 300.517
     C 149.745, 299.469 149.049, 299.033 148.235, 298.951
     C 151.147, 286.768 155.192, 290.291 155.255, 262.841
     C 155.318, 235.591 148.357, 232.894 149.768, 227.097
     C 150.487, 226.673 151.402, 225.361 149.817, 223.403
     C 160.873, 223.917 158.440, 207.198 154.776, 203.957
     C 152.808, 210.742 142.645, 205.462 142.166, 213.735
     C 141.917, 212.315 139.471, 212.759 139.656, 213.867
     C 133.682, 210.516 124.624, 208.819 116.760, 208.867
     C 108.897, 208.914  92.676, 212.752  84.347, 214.185
     C  85.005, 212.844  82.798, 211.817  81.721, 212.658
     C  80.027, 205.801  70.459, 205.121  64.482, 207.371
     C  70.273, 214.076  61.211, 223.274  71.309, 224.749
     C  70.457, 225.377  69.591, 227.525  71.188, 228.255
     z " />
  <path id="bag-lines"
     d="M  70.413, 214.462
     C  70.013, 218.007  76.205, 218.706  79.452, 217.558
     C  78.702, 220.354  72.410, 224.099  72.410, 224.099
     M 153.809, 310.393
     C 151.532, 307.826 150.059, 297.202 138.185, 309.438
     C 143.677, 303.597 147.759, 300.305 149.621, 300.508
     M  72.410, 227.246
     C  77.004, 228.344  83.597, 219.955  83.996, 216.359
     M 139.577, 213.962
     C 140.177, 219.256 143.922, 223.051 146.419, 223.251
     M  72.959, 295.461
     C  81.549, 294.113  87.941, 303.651  87.591, 307.197
     M  73.009, 299.356
     C  76.006, 299.107  80.750, 300.655  81.699, 302.153
     M  78.029, 303.401
     C  79.527, 303.277  81.549, 305.705  81.655, 307.540
     C  79.439, 310.824  77.654, 310.718  74.683, 310.517
     M 136.331, 309.144
     C 136.132, 305.249 143.709, 299.319 147.156, 299.281
     M 142.224, 213.663
     C 141.825, 217.208 148.167, 225.548 153.410, 214.611
     C 150.545, 221.180 147.629, 220.189 149.765, 223.350"
     />
 </g>
</svg>
